  0
SECTION
  2
HEADER
  9
$ACADVER
  1
AC1015
  9
$ACADMAINTVER
 70
     6
  9
$DWGCODEPAGE
  3
ANSI_1254
  9
$INSBASE
 10
0.0
 20
0.0
 30
0.0
  9
$EXTMIN
 10
-125.0
 20
-125.0
 30
0.0
  9
$EXTMAX
 10
125.0
 20
125.0
 30
0.0
  9
$LIMMIN
 10
0.0
 20
0.0
  9
$LIMMAX
 10
420.0
 20
297.0
  9
$ORTHOMODE
 70
     0
  9
$REGENMODE
 70
     1
  9
$FILLMODE
 70
     1
  9
$QTEXTMODE
 70
     0
  9
$MIRRTEXT
 70
     1
  9
$LTSCALE
 40
1.0
  9
$ATTMODE
 70
     1
  9
$TEXTSIZE
 40
3.5
  9
$TRACEWID
 40
1.0
  9
$TEXTSTYLE
  7
Standard
  9
$CLAYER
  8
0
  9
$CELTYPE
  6
ByLayer
  9
$CECOLOR
 62
   256
  9
$CELTSCALE
 40
1.0
  9
$DISPSILH
 70
     0
  9
$DIMSCALE
 40
1.0
  9
$DIMASZ
 40
3.302
  9
$DIMEXO
 40
0.0
  9
$DIMDLI
 40
3.75
  9
$DIMRND
 40
0.0
  9
$DIMDLE
 40
0.0
  9
$DIMEXE
 40
1.0
  9
$DIMTP
 40
0.0
  9
$DIMTM
 40
0.0
  9
$DIMTXT
 40
3.5
  9
$DIMCEN
 40
2.5
  9
$DIMTSZ
 40
0.0
  9
$DIMTOL
 70
     0
  9
$DIMLIM
 70
     0
  9
$DIMTIH
 70
     1
  9
$DIMTOH
 70
     1
  9
$DIMSE1
 70
     0
  9
$DIMSE2
 70
     0
  9
$DIMTAD
 70
     1
  9
$DIMZIN
 70
     1
  9
$DIMBLK
  1

  9
$DIMASO
 70
     1
  9
$DIMSHO
 70
     1
  9
$DIMPOST
  1

  9
$DIMAPOST
  1

  9
$DIMALT
 70
     0
  9
$DIMALTD
 70
     3
  9
$DIMALTF
 40
0.0393700787
  9
$DIMLFAC
 40
1.0
  9
$DIMTOFL
 70
     1
  9
$DIMTVP
 40
0.0
  9
$DIMTIX
 70
     0
  9
$DIMSOXD
 70
     0
  9
$DIMSAH
 70
     0
  9
$DIMBLK1
  1

  9
$DIMBLK2
  1

  9
$DIMSTYLE
  2
ISO-25
  9
$DIMCLRD
 70
     0
  9
$DIMCLRE
 70
     0
  9
$DIMCLRT
 70
     0
  9
$DIMTFAC
 40
1.0
  9
$DIMGAP
 40
1.524
  9
$DIMJUST
 70
     0
  9
$DIMSD1
 70
     0
  9
$DIMSD2
 70
     0
  9
$DIMTOLJ
 70
     0
  9
$DIMTZIN
 70
     1
  9
$DIMALTZ
 70
     0
  9
$DIMALTTZ
 70
     0
  9
$DIMUPT
 70
     0
  9
$DIMDEC
 70
     2
  9
$DIMTDEC
 70
     2
  9
$DIMALTU
 70
     2
  9
$DIMALTTD
 70
     3
  9
$DIMTXSTY
  7
Standard
  9
$DIMAUNIT
 70
     0
  9
$DIMADEC
 70
     2
  9
$DIMALTRND
 40
0.0
  9
$DIMAZIN
 70
     0
  9
$DIMDSEP
 70
    44
  9
$DIMATFIT
 70
     3
  9
$DIMFRAC
 70
     0
  9
$DIMLDRBLK
  1

  9
$DIMLUNIT
 70
     2
  9
$DIMLWD
 70
    -2
  9
$DIMLWE
 70
    -2
  9
$DIMTMOVE
 70
     0
  9
$LUNITS
 70
     2
  9
$LUPREC
 70
     2
  9
$SKETCHINC
 40
1.0
  9
$FILLETRAD
 40
10.0
  9
$AUNITS
 70
     0
  9
$AUPREC
 70
     2
  9
$MENU
  1
.
  9
$ELEVATION
 40
0.0
  9
$PELEVATION
 40
0.0
  9
$THICKNESS
 40
0.0
  9
$LIMCHECK
 70
     0
  9
$CHAMFERA
 40
0.0
  9
$CHAMFERB
 40
0.0
  9
$CHAMFERC
 40
0.0
  9
$CHAMFERD
 40
0.0
  9
$SKPOLY
 70
     0
  9
$TDCREATE
 40
2460322.913125729
  9
$TDUCREATE
 40
2460322.788125729
  9
$TDUPDATE
 40
2460322.91316353
  9
$TDUUPDATE
 40
2460322.78816353
  9
$TDINDWG
 40
0.0000000116
  9
$TDUSRTIMER
 40
0.0000000116
  9
$USRTIMER
 70
     1
  9
$ANGBASE
 50
0.0
  9
$ANGDIR
 70
     0
  9
$PDMODE
 70
     0
  9
$PDSIZE
 40
-1.0
  9
$PLINEWID
 40
0.0
  9
$SPLFRAME
 70
     0
  9
$SPLINETYPE
 70
     6
  9
$SPLINESEGS
 70
     8
  9
$HANDSEED
  5
35E
  9
$SURFTAB1
 70
     6
  9
$SURFTAB2
 70
     6
  9
$SURFTYPE
 70
     6
  9
$SURFU
 70
     6
  9
$SURFV
 70
     6
  9
$UCSBASE
  2

  9
$UCSNAME
  2

  9
$UCSORG
 10
0.0
 20
0.0
 30
0.0
  9
$UCSXDIR
 10
1.0
 20
0.0
 30
0.0
  9
$UCSYDIR
 10
0.0
 20
1.0
 30
0.0
  9
$UCSORTHOREF
  2

  9
$UCSORTHOVIEW
 70
     0
  9
$UCSORGTOP
 10
0.0
 20
0.0
 30
0.0
  9
$UCSORGBOTTOM
 10
0.0
 20
0.0
 30
0.0
  9
$UCSORGLEFT
 10
0.0
 20
0.0
 30
0.0
  9
$UCSORGRIGHT
 10
0.0
 20
0.0
 30
0.0
  9
$UCSORGFRONT
 10
0.0
 20
0.0
 30
0.0
  9
$UCSORGBACK
 10
0.0
 20
0.0
 30
0.0
  9
$PUCSBASE
  2

  9
$PUCSNAME
  2

  9
$PUCSORG
 10
0.0
 20
0.0
 30
0.0
  9
$PUCSXDIR
 10
1.0
 20
0.0
 30
0.0
  9
$PUCSYDIR
 10
0.0
 20
1.0
 30
0.0
  9
$PUCSORTHOREF
  2

  9
$PUCSORTHOVIEW
 70
     0
  9
$PUCSORGTOP
 10
0.0
 20
0.0
 30
0.0
  9
$PUCSORGBOTTOM
 10
0.0
 20
0.0
 30
0.0
  9
$PUCSORGLEFT
 10
0.0
 20
0.0
 30
0.0
  9
$PUCSORGRIGHT
 10
0.0
 20
0.0
 30
0.0
  9
$PUCSORGFRONT
 10
0.0
 20
0.0
 30
0.0
  9
$PUCSORGBACK
 10
0.0
 20
0.0
 30
0.0
  9
$USERI1
 70
     0
  9
$USERI2
 70
     0
  9
$USERI3
 70
     0
  9
$USERI4
 70
     0
  9
$USERI5
 70
     0
  9
$USERR1
 40
0.0
  9
$USERR2
 40
0.0
  9
$USERR3
 40
0.0
  9
$USERR4
 40
0.0
  9
$USERR5
 40
0.0
  9
$WORLDVIEW
 70
     1
  9
$SHADEDGE
 70
     3
  9
$SHADEDIF
 70
    70
  9
$TILEMODE
 70
     1
  9
$MAXACTVP
 70
    64
  9
$PINSBASE
 10
0.0
 20
0.0
 30
0.0
  9
$PLIMCHECK
 70
     0
  9
$PEXTMIN
 10
1.0000000000E+20
 20
1.0000000000E+20
 30
1.0000000000E+20
  9
$PEXTMAX
 10
-1.0000000000E+20
 20
-1.0000000000E+20
 30
-1.0000000000E+20
  9
$PLIMMIN
 10
0.0
 20
0.0
  9
$PLIMMAX
 10
420.0
 20
297.0
  9
$UNITMODE
 70
     0
  9
$VISRETAIN
 70
     1
  9
$PLINEGEN
 70
     0
  9
$PSLTSCALE
 70
     1
  9
$TREEDEPTH
 70
  3020
  9
$CMLSTYLE
  2
Standard
  9
$CMLJUST
 70
     0
  9
$CMLSCALE
 40
20.0
  9
$PROXYGRAPHICS
 70
     1
  9
$MEASUREMENT
 70
     1
  9
$CELWEIGHT
370
    -1
  9
$ENDCAPS
280
     0
  9
$JOINSTYLE
280
     0
  9
$LWDISPLAY
290
     1
  9
$INSUNITS
 70
     4
  9
$HYPERLINKBASE
  1

  9
$STYLESHEET
  1

  9
$XEDIT
290
     1
  9
$CEPSNTYPE
380
     0
  9
$PSTYLEMODE
290
     1
  9
$FINGERPRINTGUID
  2
{34b6b2e0-40e2-4165-9e96-f9318d1422b9}
  9
$VERSIONGUID
  2
{FAEB1C32-E019-11D5-929B-00C0DF256EC4}
  9
$EXTNAMES
290
     1
  9
$PSVPSCALE
 40
0.0
  9
$OLESTARTUP
290
     0
  0
ENDSEC
  0
SECTION
  2
CLASSES
  0
CLASS
  1
ACDBDICTIONARYWDFLT
  2
AcDbDictionaryWithDefault
  3
ObjectDBX Classes
 90
        0
280
     0
281
     0
  0
CLASS
  1
VISUALSTYLE
  2
AcDbVisualStyle
  3
ObjectDBX Classes
 90
     4095
280
     0
281
     0
  0
CLASS
  1
MATERIAL
  2
AcDbMaterial
  3
ObjectDBX Classes
 90
     1153
280
     0
281
     0
  0
CLASS
  1
SCALE
  2
AcDbScale
  3
ObjectDBX Classes
 90
     1153
280
     0
281
     0
  0
CLASS
  1
TABLESTYLE
  2
AcDbTableStyle
  3
ObjectDBX Classes
 90
     4095
280
     0
281
     0
  0
CLASS
  1
MLEADERSTYLE
  2
AcDbMLeaderStyle
  3
ACDB_MLEADERSTYLE_CLASS
 90
     4095
280
     0
281
     0
  0
CLASS
  1
SUN
  2
AcDbSun
  3
SCENEOE
 90
     1153
280
     0
281
     0
  0
CLASS
  1
ACDBPLACEHOLDER
  2
AcDbPlaceHolder
  3
ObjectDBX Classes
 90
        0
280
     0
281
     0
  0
CLASS
  1
LAYOUT
  2
AcDbLayout
  3
ObjectDBX Classes
 90
        0
280
     0
281
     0
  0
ENDSEC
  0
SECTION
  2
TABLES
  0
TABLE
  2
VPORT
  5
8
330
0
100
AcDbSymbolTable
 70
     1
  0
VPORT
  5
29
330
8
100
AcDbSymbolTableRecord
100
AcDbViewportTableRecord
  2
*Active
 70
     0
 10
0.0
 20
0.0
 11
1.0
 21
1.0
 12
0.0
 22
0.0
 13
0.0
 23
0.0
 14
10.0
 24
10.0
 15
10.0
 25
10.0
 16
0.0
 26
0.0
 36
1.0
 17
0.0
 27
0.0
 37
0.0
 40
255.0
 41
1.0
 42
50.0
 43
0.0
 44
0.0
 50
0.0
 51
0.0
 71
     0
 72
   100
 73
     1
 74
     3
 75
     0
 76
     0
 77
     0
 78
     0
281
     0
 65
     1
110
0.0
120
0.0
130
0.0
111
1.0
121
0.0
131
0.0
112
0.0
122
1.0
132
0.0
 79
     0
146
0.0
  0
ENDTAB
  0
TABLE
  2
LTYPE
  5
5
330
0
100
AcDbSymbolTable
 70
     6
  0
LTYPE
  5
14
330
5
100
AcDbSymbolTableRecord
100
AcDbLinetypeTableRecord
  2
ByBlock
 70
     0
  3

 72
    65
 73
     0
 40
0.0
  0
LTYPE
  5
15
330
5
100
AcDbSymbolTableRecord
100
AcDbLinetypeTableRecord
  2
ByLayer
 70
     0
  3

 72
    65
 73
     0
 40
0.0
  0
LTYPE
  5
16
330
5
100
AcDbSymbolTableRecord
100
AcDbLinetypeTableRecord
  2
Continuous
 70
     0
  3
Solid line
 72
    65
 73
     0
 40
0.0
  0
LTYPE
  5
6E
330
5
100
AcDbSymbolTableRecord
100
AcDbLinetypeTableRecord
  2
HIDDEN
 70
     0
  3
Hidden __ __ __ __ __ __ __ __ __ __ __ __ __ __
 72
    65
 73
     2
 40
1.905
 49
1.27
 74
     0
 49
-0.635
 74
     0
  0
LTYPE
  5
6F
330
5
100
AcDbSymbolTableRecord
100
AcDbLinetypeTableRecord
  2
PHANTOM
 70
     0
  3
Phantom ______  __  __  ______  __  __  ______
 72
    65
 73
     6
 40
12.7
 49
6.35
 74
     0
 49
-1.27
 74
     0
 49
1.27
 74
     0
 49
-1.27
 74
     0
 49
1.27
 74
     0
 49
-1.27
 74
     0
  0
LTYPE
  5
70
330
5
100
AcDbSymbolTableRecord
100
AcDbLinetypeTableRecord
  2
CENTER
 70
     0
  3
Center ____ _ ____ _ ____ _ ____ _ ____ _ ____
 72
    65
 73
     4
 40
10.16
 49
6.35
 74
     0
 49
-1.27
 74
     0
 49
1.27
 74
     0
 49
-1.27
 74
     0
  0
LTYPE
  5
71
330
5
100
AcDbSymbolTableRecord
100
AcDbLinetypeTableRecord
  2
CENTERX2
 70
     0
  3
Center (2x) ________  __  ________  __  _____
 72
    65
 73
     4
 40
20.32
 49
12.7
 74
     0
 49
-2.54
 74
     0
 49
2.54
 74
     0
 49
-2.54
 74
     0
  0
LTYPE
  5
72
330
5
100
AcDbSymbolTableRecord
100
AcDbLinetypeTableRecord
  2
DOT2
 70
     0
  3
Dot (.5x) ........................................
 72
    65
 73
     2
 40
0.635
 49
0.0
 74
     0
 49
-0.635
 74
     0
  0
ENDTAB
  0
TABLE
  2
LAYER
  5
2
330
0
100
AcDbSymbolTable
 70
     1
  0
LAYER
  5
10
330
2
100
AcDbSymbolTableRecord
100
AcDbLayerTableRecord
  2
0
 70
     0
 62
     7
  6
Continuous
370
    -3
390
F
  0
ENDTAB
  0
TABLE
  2
STYLE
  5
3
330
0
100
AcDbSymbolTable
 70
     1
  0
STYLE
  5
11
330
3
100
AcDbSymbolTableRecord
100
AcDbTextStyleTableRecord
  2
Standard
 70
     0
 40
0.0
 41
1.0
 50
0.0
 71
     0
 42
3.5
  3
txt
  4

  0
ENDTAB
  0
TABLE
  2
VIEW
  5
6
330
0
100
AcDbSymbolTable
 70
     0
  0
ENDTAB
  0
TABLE
  2
UCS
  5
7
330
0
100
AcDbSymbolTable
 70
     0
  0
ENDTAB
  0
TABLE
  2
APPID
  5
9
330
0
100
AcDbSymbolTable
 70
     1
  0
APPID
  5
12
330
9
100
AcDbSymbolTableRecord
100
AcDbRegAppTableRecord
  2
ACAD
 70
     0
  0
ENDTAB
  0
TABLE
  2
DIMSTYLE
  5
A
330
0
100
AcDbSymbolTable
 70
     1
100
AcDbDimStyleTable
  0
DIMSTYLE
105
27
330
A
100
AcDbSymbolTableRecord
100
AcDbDimStyleTableRecord
  2
ISO-25
 70
     0
 41
2.5
 42
0.625
 43
3.75
 44
1.25
 73
     0
 74
     0
 77
     1
 78
     8
140
2.5
141
2.5
143
0.0393700787
147
0.625
171
     3
172
     1
178
     0
271
     2
272
     2
274
     3
278
    44
283
     0
284
     8
340
11
  0
ENDTAB
  0
TABLE
  2
BLOCK_RECORD
  5
1
330
0
100
AcDbSymbolTable
 70
     1
  0
BLOCK_RECORD
  5
1F
330
1
100
AcDbSymbolTableRecord
100
AcDbBlockTableRecord
  2
*Model_Space
340
22
  0
BLOCK_RECORD
  5
1B
330
1
100
AcDbSymbolTableRecord
100
AcDbBlockTableRecord
  2
*Paper_Space
340
1E
  0
BLOCK_RECORD
  5
23
330
1
100
AcDbSymbolTableRecord
100
AcDbBlockTableRecord
  2
*Paper_Space0
340
26
  0
ENDTAB
  0
ENDSEC
  0
SECTION
  2
BLOCKS
  0
BLOCK
  5
20
330
1F
100
AcDbEntity
  8
0
100
AcDbBlockBegin
  2
*Model_Space
 70
     0
 10
0.0
 20
0.0
 30
0.0
  3
*Model_Space
  1

  0
ENDBLK
  5
21
330
1F
100
AcDbEntity
  8
0
100
AcDbBlockEnd
  0
BLOCK
  5
1C
330
1B
100
AcDbEntity
 67
     1
  8
0
100
AcDbBlockBegin
  2
*Paper_Space
 70
     0
 10
0.0
 20
0.0
 30
0.0
  3
*Paper_Space
  1

  0
ENDBLK
  5
1D
330
1B
100
AcDbEntity
 67
     1
  8
0
100
AcDbBlockEnd
  0
BLOCK
  5
24
330
23
100
AcDbEntity
  8
0
100
AcDbBlockBegin
  2
*Paper_Space0
 70
     0
 10
0.0
 20
0.0
 30
0.0
  3
*Paper_Space0
  1

  0
ENDBLK
  5
25
330
23
100
AcDbEntity
  8
0
100
AcDbBlockEnd
  0
ENDSEC
  0
SECTION
  2
ENTITIES
  0
CIRCLE
  5
73
330
1F
100
AcDbEntity
  8
0
  6
Continuous
 62
     7
370
    25
100
AcDbCircle
 10
0.0
 20
0.0
 30
0.0
 40
124.9999999999999
  0
CIRCLE
  5
1C4
330
1F
100
AcDbEntity
  8
0
  6
Continuous
 62
     7
370
    25
100
AcDbCircle
 10
0.0
 20
0.0
 30
0.0
 40
75.0000000000001
  0
LINE
  5
1E9
330
1F
100
AcDbEntity
  8
0
  6
Continuous
 62
     7
370
    25
100
AcDbLine
 10
-72.7753055258
 20
21.5706367054
 30
0.0
 11
-75.8056505731
 21
22.3826152136
 31
0.0
  0
LINE
  5
1EA
330
1F
100
AcDbEntity
  8
0
  6
Continuous
 62
     7
370
    25
100
AcDbLine
 10
-76.5402596325
 20
23.4629988979
 30
0.0
 11
-76.3544248602
 21
25.0759373951
 31
0.0
  0
LINE
  5
1EB
330
1F
100
AcDbEntity
  8
0
  6
Continuous
 62
     7
370
    25
100
AcDbLine
 10
-101.2565825571
 20
35.4198489355
 30
0.0
 11
-76.9374051057
 21
26.102279322
 31
0.0
  0
LINE
  5
1EC
330
1F
100
AcDbEntity
  8
0
  6
Continuous
 62
     7
370
    25
100
AcDbLine
 10
-107.5190076224
 20
23.639270329
 30
0.0
 11
-104.9308171713
 21
33.2985285919
 31
0.0
  0
LINE
  5
1ED
330
1F
100
AcDbEntity
  8
0
  6
Continuous
 62
     7
370
    25
100
AcDbLine
 10
-105.3976872788
 20
19.9650357149
 30
0.0
 11
-79.7120461971
 21
15.8729840607
 31
0.0
  0
LINE
  5
1EE
330
1F
100
AcDbEntity
  8
0
  6
Continuous
 62
     7
370
    25
100
AcDbLine
 10
-78.8129549519
 20
16.4597695405
 30
0.0
 11
-78.1161654459
 21
17.9956401598
 31
0.0
  0
LINE
  5
1EF
330
1F
100
AcDbEntity
  8
0
  6
Continuous
 62
     7
370
    25
100
AcDbLine
 10
-73.8103181038
 20
17.7080321794
 30
0.0
 11
-76.9466823025
 21
18.5484184337
 31
0.0
  0
LINE
  5
1F0
330
1F
100
AcDbEntity
  8
0
  6
Continuous
 62
     7
370
    25
100
AcDbLine
 10
-75.8784387178
 20
2.0
 30
0.0
 11
-79.0156827637
 21
2.0
 31
0.0
  0
LINE
  5
1F1
330
1F
100
AcDbEntity
  8
0
  6
Continuous
 62
     7
370
    25
100
AcDbLine
 10
-80.0048844999
 20
2.8534396877
 30
0.0
 11
-80.2428410956
 21
4.4595162166
 31
0.0
  0
LINE
  5
1F2
330
1F
100
AcDbEntity
  8
0
  6
Continuous
 62
     7
370
    25
100
AcDbLine
 10
-106.9736796529
 20
8.0058148423
 30
0.0
 11
-81.0715936084
 21
5.3
 31
0.0
  0
LINE
  5
1F3
330
1F
100
AcDbEntity
  8
0
  6
Continuous
 62
     7
370
    25
100
AcDbLine
 10
-109.9736796529
 20
-4.9941851577
 30
0.0
 11
-109.9736796529
 21
5.0058148423
 31
0.0
  0
LINE
  5
1F4
330
1F
100
AcDbEntity
  8
0
  6
Continuous
 62
     7
370
    25
100
AcDbLine
 10
-106.9736796529
 20
-7.9941851577
 30
0.0
 11
-81.1041546657
 21
-5.2988704355
 31
0.0
  0
LINE
  5
1F5
330
1F
100
AcDbEntity
  8
0
  6
Continuous
 62
     7
370
    25
100
AcDbLine
 10
-80.3875704693
 20
-4.4993772484
 30
0.0
 11
-80.112036057
 21
-2.8354977568
 31
0.0
  0
LINE
  5
1F6
330
1F
100
AcDbEntity
  8
0
  6
Continuous
 62
     7
370
    25
100
AcDbLine
 10
-75.8784684824
 20
-1.9988704355
 30
0.0
 11
-79.1254716304
 21
-1.9988704355
 31
0.0
  0
LINE
  5
1F7
330
1F
100
AcDbEntity
  8
0
  6
Continuous
 62
     7
370
    25
100
AcDbLine
 10
-73.8105817062
 20
-17.7069334002
 30
0.0
 11
-76.8409267535
 21
-18.5189119084
 31
0.0
  0
LINE
  5
1F8
330
1F
100
AcDbEntity
  8
0
  6
Continuous
 62
     7
370
    25
100
AcDbLine
 10
-78.0173087029
 20
-17.9505767217
 30
0.0
 11
-78.6628403178
 21
-16.4608136223
 31
0.0
  0
LINE
  5
1F9
330
1F
100
AcDbEntity
  8
0
  6
Continuous
 62
     7
370
    25
100
AcDbLine
 10
-105.4006972626
 20
-19.9538023022
 30
0.0
 11
-79.6808869838
 21
-15.8634655633
 31
0.0
  0
LINE
  5
1FA
330
1F
100
AcDbEntity
  8
0
  6
Continuous
 62
     7
370
    25
100
AcDbLine
 10
-104.9338271552
 20
-33.2872951793
 30
0.0
 11
-107.5220176062
 21
-23.6280369164
 31
0.0
  0
LINE
  5
1FB
330
1F
100
AcDbEntity
  8
0
  6
Continuous
 62
     7
370
    25
100
AcDbLine
 10
-101.259592541
 20
-35.4086155229
 30
0.0
 11
-76.9691490247
 21
-26.1096156682
 31
0.0
  0
LINE
  5
1FC
330
1F
100
AcDbEntity
  8
0
  6
Continuous
 62
     7
370
    25
100
AcDbLine
 10
-76.4839059059
 20
-25.1518989134
 30
0.0
 11
-76.6484038023
 21
-23.4734011872
 31
0.0
  0
LINE
  5
1FD
330
1F
100
AcDbEntity
  8
0
  6
Continuous
 62
     7
370
    25
100
AcDbLine
 10
-72.775626629
 20
-21.5695533335
 30
0.0
 11
-75.9119908277
 21
-22.4099395877
 31
0.0
  0
LINE
  5
1FE
330
1F
100
AcDbEntity
  8
0
  6
Continuous
 62
     7
370
    25
100
AcDbLine
 10
-66.7126555291
 20
-36.2071685513
 30
0.0
 11
-69.4295885707
 21
-37.7757905743
 31
0.0
  0
LINE
  5
1FF
330
1F
100
AcDbEntity
  8
0
  6
Continuous
 62
     7
370
    25
100
AcDbLine
 10
-70.7129822476
 20
-37.5312909922
 30
0.0
 11
-71.7220969689
 21
-36.2593662156
 31
0.0
  0
LINE
  5
200
330
1F
100
AcDbEntity
  8
0
  6
Continuous
 62
     7
370
    25
100
AcDbLine
 10
-96.6448315368
 20
-46.5536007951
 30
0.0
 11
-72.8600595902
 21
-35.9458621642
 31
0.0
  0
LINE
  5
201
330
1F
100
AcDbEntity
  8
0
  6
Continuous
 62
     7
370
    25
100
AcDbLine
 10
-92.7429077482
 20
-59.3119310443
 30
0.0
 11
-97.7429077482
 21
-50.6516770064
 31
0.0
  0
LINE
  5
202
330
1F
100
AcDbEntity
  8
0
  6
Continuous
 62
     7
370
    25
100
AcDbLine
 10
-88.6448315368
 20
-60.4100072556
 30
0.0
 11
-67.5888230752
 21
-45.1410337413
 31
0.0
  0
LINE
  5
203
330
1F
100
AcDbEntity
  8
0
  6
Continuous
 62
     7
370
    25
100
AcDbLine
 10
-67.3679895507
 20
-44.090360233
 30
0.0
 11
-67.9613094959
 21
-42.5116311183
 31
0.0
  0
LINE
  5
204
330
1F
100
AcDbEntity
  8
0
  6
Continuous
 62
     7
370
    25
100
AcDbLine
 10
-64.7132460883
 20
-39.6703068172
 30
0.0
 11
-67.5252333006
 21
-41.2938083912
 31
0.0
  0
LINE
  5
205
330
1F
100
AcDbEntity
  8
0
  6
Continuous
 62
     7
370
    25
100
AcDbLine
 10
-55.0683721256
 20
-52.2399450008
 30
0.0
 11
-57.2867386647
 21
-54.4583115399
 31
0.0
  0
LINE
  5
206
330
1F
100
AcDbEntity
  8
0
  6
Continuous
 62
     7
370
    25
100
AcDbLine
 10
-58.5896829108
 20
-54.554309805
 30
0.0
 11
-59.893611238
 21
-53.5869029228
 31
0.0
  0
LINE
  5
207
330
1F
100
AcDbEntity
  8
0
  6
Continuous
 62
     7
370
    25
100
AcDbLine
 10
-81.3027802549
 20
-69.9808483271
 30
0.0
 11
-61.0739395424
 21
-53.5786076618
 31
0.0
  0
LINE
  5
208
330
1F
100
AcDbEntity
  8
0
  6
Continuous
 62
     7
370
    25
100
AcDbLine
 10
-74.2317124431
 20
-81.2945568261
 30
0.0
 11
-81.3027802549
 21
-74.2234890143
 31
0.0
  0
LINE
  5
209
330
1F
100
AcDbEntity
  8
0
  6
Continuous
 62
     7
370
    25
100
AcDbLine
 10
-69.9890717559
 20
-81.2945568261
 30
0.0
 11
-53.602430529
 21
-61.096164964
 31
0.0
  0
LINE
  5
20A
330
1F
100
AcDbEntity
  8
0
  6
Continuous
 62
     7
370
    25
100
AcDbLine
 10
-53.6610560385
 20
-60.0241363654
 30
0.0
 11
-54.6427642587
 21
-58.6527636425
 31
0.0
  0
LINE
  5
20B
330
1F
100
AcDbEntity
  8
0
  6
Continuous
 62
     7
370
    25
100
AcDbLine
 10
-52.2407647703
 20
-55.0675944496
 30
0.0
 11
-54.5367427148
 21
-57.3635723941
 31
0.0
  0
LINE
  5
20C
330
1F
100
AcDbEntity
  8
0
  6
Continuous
 62
     7
370
    25
100
AcDbLine
 10
-39.6712701665
 20
-64.7126555291
 30
0.0
 11
-41.2398921894
 21
-67.4295885707
 31
0.0
  0
LINE
  5
20D
330
1F
100
AcDbEntity
  8
0
  6
Continuous
 62
     7
370
    25
100
AcDbLine
 10
-42.4735935077
 20
-67.8595425599
 30
0.0
 11
-43.98347488
 21
-67.2625807523
 31
0.0
  0
LINE
  5
20E
330
1F
100
AcDbEntity
  8
0
  6
Continuous
 62
     7
370
    25
100
AcDbLine
 10
-60.4200788578
 20
-88.6390166946
 30
0.0
 11
-45.1257314443
 21
-67.5600595902
 31
0.0
  0
LINE
  5
20F
330
1F
100
AcDbEntity
  8
0
  6
Continuous
 62
     7
370
    25
100
AcDbLine
 10
-50.6617486086
 20
-97.7370929059
 30
0.0
 11
-59.3220026465
 21
-92.7370929059
 31
0.0
  0
LINE
  5
210
330
1F
100
AcDbEntity
  8
0
  6
Continuous
 62
     7
370
    25
100
AcDbLine
 10
-46.5636723973
 20
-96.6390166946
 30
0.0
 11
-35.9631209244
 21
-72.8876935107
 31
0.0
  0
LINE
  5
211
330
1F
100
AcDbEntity
  8
0
  6
Continuous
 62
     7
370
    25
100
AcDbLine
 10
-36.2972102363
 20
-71.8673667991
 30
0.0
 11
-37.6004049387
 21
-70.7968072527
 31
0.0
  0
LINE
  5
212
330
1F
100
AcDbEntity
  8
0
  6
Continuous
 62
     7
370
    25
100
AcDbLine
 10
-36.2081616652
 20
-66.7121165237
 30
0.0
 11
-37.8316632392
 21
-69.5241037361
 31
0.0
  0
LINE
  5
213
330
1F
100
AcDbEntity
  8
0
  6
Continuous
 62
     7
370
    25
100
AcDbLine
 10
-21.5706367054
 20
-72.7753055258
 30
0.0
 11
-22.3826152136
 21
-75.8056505731
 31
0.0
  0
LINE
  5
214
330
1F
100
AcDbEntity
  8
0
  6
Continuous
 62
     7
370
    25
100
AcDbLine
 10
-23.4629988979
 20
-76.5402596325
 30
0.0
 11
-25.0759373951
 21
-76.3544248602
 31
0.0
  0
LINE
  5
215
330
1F
100
AcDbEntity
  8
0
  6
Continuous
 62
     7
370
    25
100
AcDbLine
 10
-35.4198489355
 20
-101.2565825571
 30
0.0
 11
-26.102279322
 21
-76.9374051057
 31
0.0
  0
LINE
  5
216
330
1F
100
AcDbEntity
  8
0
  6
Continuous
 62
     7
370
    25
100
AcDbLine
 10
-23.639270329
 20
-107.5190076224
 30
0.0
 11
-33.2985285919
 21
-104.9308171713
 31
0.0
  0
LINE
  5
217
330
1F
100
AcDbEntity
  8
0
  6
Continuous
 62
     7
370
    25
100
AcDbLine
 10
-19.9650357149
 20
-105.3976872788
 30
0.0
 11
-15.8729840607
 21
-79.7120461971
 31
0.0
  0
LINE
  5
218
330
1F
100
AcDbEntity
  8
0
  6
Continuous
 62
     7
370
    25
100
AcDbLine
 10
-16.4597695405
 20
-78.8129549519
 30
0.0
 11
-17.9956401598
 21
-78.1161654459
 31
0.0
  0
LINE
  5
219
330
1F
100
AcDbEntity
  8
0
  6
Continuous
 62
     7
370
    25
100
AcDbLine
 10
-17.7080321794
 20
-73.8103181038
 30
0.0
 11
-18.5484184337
 21
-76.9466823025
 31
0.0
  0
LINE
  5
21A
330
1F
100
AcDbEntity
  8
0
  6
Continuous
 62
     7
370
    25
100
AcDbLine
 10
-2.0
 20
-75.8784387178
 30
0.0
 11
-2.0
 21
-79.0156827637
 31
0.0
  0
LINE
  5
21B
330
1F
100
AcDbEntity
  8
0
  6
Continuous
 62
     7
370
    25
100
AcDbLine
 10
-2.8534396877
 20
-80.0048844999
 30
0.0
 11
-4.4595162166
 21
-80.2428410956
 31
0.0
  0
LINE
  5
21C
330
1F
100
AcDbEntity
  8
0
  6
Continuous
 62
     7
370
    25
100
AcDbLine
 10
-8.0058148423
 20
-106.9736796529
 30
0.0
 11
-5.3
 21
-81.0715936084
 31
0.0
  0
LINE
  5
21D
330
1F
100
AcDbEntity
  8
0
  6
Continuous
 62
     7
370
    25
100
AcDbLine
 10
4.9941851577
 20
-109.9736796529
 30
0.0
 11
-5.0058148423
 21
-109.9736796529
 31
0.0
  0
LINE
  5
21E
330
1F
100
AcDbEntity
  8
0
  6
Continuous
 62
     7
370
    25
100
AcDbLine
 10
7.9941851577
 20
-106.9736796529
 30
0.0
 11
5.2988704355
 21
-81.1041546657
 31
0.0
  0
LINE
  5
21F
330
1F
100
AcDbEntity
  8
0
  6
Continuous
 62
     7
370
    25
100
AcDbLine
 10
4.4993772484
 20
-80.3875704693
 30
0.0
 11
2.8354977568
 21
-80.112036057
 31
0.0
  0
LINE
  5
220
330
1F
100
AcDbEntity
  8
0
  6
Continuous
 62
     7
370
    25
100
AcDbLine
 10
1.9988704355
 20
-75.8784684824
 30
0.0
 11
1.9988704355
 21
-79.1254716304
 31
0.0
  0
LINE
  5
221
330
1F
100
AcDbEntity
  8
0
  6
Continuous
 62
     7
370
    25
100
AcDbLine
 10
17.7069334002
 20
-73.8105817062
 30
0.0
 11
18.5189119084
 21
-76.8409267535
 31
0.0
  0
LINE
  5
222
330
1F
100
AcDbEntity
  8
0
  6
Continuous
 62
     7
370
    25
100
AcDbLine
 10
17.9505767217
 20
-78.0173087029
 30
0.0
 11
16.4608136223
 21
-78.6628403178
 31
0.0
  0
LINE
  5
223
330
1F
100
AcDbEntity
  8
0
  6
Continuous
 62
     7
370
    25
100
AcDbLine
 10
19.9538023022
 20
-105.4006972626
 30
0.0
 11
15.8634655633
 21
-79.6808869838
 31
0.0
  0
LINE
  5
224
330
1F
100
AcDbEntity
  8
0
  6
Continuous
 62
     7
370
    25
100
AcDbLine
 10
33.2872951793
 20
-104.9338271552
 30
0.0
 11
23.6280369164
 21
-107.5220176062
 31
0.0
  0
LINE
  5
225
330
1F
100
AcDbEntity
  8
0
  6
Continuous
 62
     7
370
    25
100
AcDbLine
 10
35.4086155229
 20
-101.259592541
 30
0.0
 11
26.1096156682
 21
-76.9691490247
 31
0.0
  0
LINE
  5
226
330
1F
100
AcDbEntity
  8
0
  6
Continuous
 62
     7
370
    25
100
AcDbLine
 10
25.1518989134
 20
-76.4839059059
 30
0.0
 11
23.4734011872
 21
-76.6484038023
 31
0.0
  0
LINE
  5
227
330
1F
100
AcDbEntity
  8
0
  6
Continuous
 62
     7
370
    25
100
AcDbLine
 10
21.5695533335
 20
-72.775626629
 30
0.0
 11
22.4099395877
 21
-75.9119908277
 31
0.0
  0
LINE
  5
228
330
1F
100
AcDbEntity
  8
0
  6
Continuous
 62
     7
370
    25
100
AcDbLine
 10
36.2071685513
 20
-66.7126555291
 30
0.0
 11
37.7757905743
 21
-69.4295885707
 31
0.0
  0
LINE
  5
229
330
1F
100
AcDbEntity
  8
0
  6
Continuous
 62
     7
370
    25
100
AcDbLine
 10
37.5312909922
 20
-70.7129822476
 30
0.0
 11
36.2593662156
 21
-71.7220969689
 31
0.0
  0
LINE
  5
22A
330
1F
100
AcDbEntity
  8
0
  6
Continuous
 62
     7
370
    25
100
AcDbLine
 10
46.5536007951
 20
-96.6448315368
 30
0.0
 11
35.9458621642
 21
-72.8600595902
 31
0.0
  0
LINE
  5
22B
330
1F
100
AcDbEntity
  8
0
  6
Continuous
 62
     7
370
    25
100
AcDbLine
 10
59.3119310443
 20
-92.7429077482
 30
0.0
 11
50.6516770064
 21
-97.7429077482
 31
0.0
  0
LINE
  5
22C
330
1F
100
AcDbEntity
  8
0
  6
Continuous
 62
     7
370
    25
100
AcDbLine
 10
60.4100072556
 20
-88.6448315368
 30
0.0
 11
45.1410337413
 21
-67.5888230752
 31
0.0
  0
LINE
  5
22D
330
1F
100
AcDbEntity
  8
0
  6
Continuous
 62
     7
370
    25
100
AcDbLine
 10
44.090360233
 20
-67.3679895507
 30
0.0
 11
42.5116311183
 21
-67.9613094959
 31
0.0
  0
LINE
  5
22E
330
1F
100
AcDbEntity
  8
0
  6
Continuous
 62
     7
370
    25
100
AcDbLine
 10
39.6703068172
 20
-64.7132460883
 30
0.0
 11
41.2938083912
 21
-67.5252333006
 31
0.0
  0
LINE
  5
22F
330
1F
100
AcDbEntity
  8
0
  6
Continuous
 62
     7
370
    25
100
AcDbLine
 10
52.2399450008
 20
-55.0683721256
 30
0.0
 11
54.4583115399
 21
-57.2867386647
 31
0.0
  0
LINE
  5
230
330
1F
100
AcDbEntity
  8
0
  6
Continuous
 62
     7
370
    25
100
AcDbLine
 10
54.554309805
 20
-58.5896829108
 30
0.0
 11
53.5869029228
 21
-59.893611238
 31
0.0
  0
LINE
  5
231
330
1F
100
AcDbEntity
  8
0
  6
Continuous
 62
     7
370
    25
100
AcDbLine
 10
69.9808483271
 20
-81.3027802549
 30
0.0
 11
53.5786076618
 21
-61.0739395424
 31
0.0
  0
LINE
  5
232
330
1F
100
AcDbEntity
  8
0
  6
Continuous
 62
     7
370
    25
100
AcDbLine
 10
81.2945568261
 20
-74.2317124431
 30
0.0
 11
74.2234890143
 21
-81.3027802549
 31
0.0
  0
LINE
  5
233
330
1F
100
AcDbEntity
  8
0
  6
Continuous
 62
     7
370
    25
100
AcDbLine
 10
81.2945568261
 20
-69.9890717559
 30
0.0
 11
61.096164964
 21
-53.602430529
 31
0.0
  0
LINE
  5
234
330
1F
100
AcDbEntity
  8
0
  6
Continuous
 62
     7
370
    25
100
AcDbLine
 10
60.0241363654
 20
-53.6610560385
 30
0.0
 11
58.6527636425
 21
-54.6427642587
 31
0.0
  0
LINE
  5
235
330
1F
100
AcDbEntity
  8
0
  6
Continuous
 62
     7
370
    25
100
AcDbLine
 10
55.0675944496
 20
-52.2407647703
 30
0.0
 11
57.3635723941
 21
-54.5367427148
 31
0.0
  0
LINE
  5
236
330
1F
100
AcDbEntity
  8
0
  6
Continuous
 62
     7
370
    25
100
AcDbLine
 10
64.7126555291
 20
-39.6712701665
 30
0.0
 11
67.4295885707
 21
-41.2398921894
 31
0.0
  0
LINE
  5
237
330
1F
100
AcDbEntity
  8
0
  6
Continuous
 62
     7
370
    25
100
AcDbLine
 10
67.8595425599
 20
-42.4735935077
 30
0.0
 11
67.2625807523
 21
-43.98347488
 31
0.0
  0
LINE
  5
238
330
1F
100
AcDbEntity
  8
0
  6
Continuous
 62
     7
370
    25
100
AcDbLine
 10
88.6390166946
 20
-60.4200788578
 30
0.0
 11
67.5600595902
 21
-45.1257314443
 31
0.0
  0
LINE
  5
239
330
1F
100
AcDbEntity
  8
0
  6
Continuous
 62
     7
370
    25
100
AcDbLine
 10
97.7370929059
 20
-50.6617486086
 30
0.0
 11
92.7370929059
 21
-59.3220026465
 31
0.0
  0
LINE
  5
23A
330
1F
100
AcDbEntity
  8
0
  6
Continuous
 62
     7
370
    25
100
AcDbLine
 10
96.6390166946
 20
-46.5636723973
 30
0.0
 11
72.8876935107
 21
-35.9631209244
 31
0.0
  0
LINE
  5
23B
330
1F
100
AcDbEntity
  8
0
  6
Continuous
 62
     7
370
    25
100
AcDbLine
 10
71.8673667991
 20
-36.2972102363
 30
0.0
 11
70.7968072527
 21
-37.6004049387
 31
0.0
  0
LINE
  5
23C
330
1F
100
AcDbEntity
  8
0
  6
Continuous
 62
     7
370
    25
100
AcDbLine
 10
66.7121165237
 20
-36.2081616652
 30
0.0
 11
69.5241037361
 21
-37.8316632392
 31
0.0
  0
LINE
  5
23D
330
1F
100
AcDbEntity
  8
0
  6
Continuous
 62
     7
370
    25
100
AcDbLine
 10
72.7753055258
 20
-21.5706367054
 30
0.0
 11
75.8056505731
 21
-22.3826152136
 31
0.0
  0
LINE
  5
23E
330
1F
100
AcDbEntity
  8
0
  6
Continuous
 62
     7
370
    25
100
AcDbLine
 10
76.5402596325
 20
-23.4629988979
 30
0.0
 11
76.3544248602
 21
-25.0759373951
 31
0.0
  0
LINE
  5
23F
330
1F
100
AcDbEntity
  8
0
  6
Continuous
 62
     7
370
    25
100
AcDbLine
 10
101.2565825571
 20
-35.4198489355
 30
0.0
 11
76.9374051057
 21
-26.102279322
 31
0.0
  0
LINE
  5
240
330
1F
100
AcDbEntity
  8
0
  6
Continuous
 62
     7
370
    25
100
AcDbLine
 10
107.5190076224
 20
-23.639270329
 30
0.0
 11
104.9308171713
 21
-33.2985285919
 31
0.0
  0
LINE
  5
241
330
1F
100
AcDbEntity
  8
0
  6
Continuous
 62
     7
370
    25
100
AcDbLine
 10
105.3976872788
 20
-19.9650357149
 30
0.0
 11
79.7120461971
 21
-15.8729840607
 31
0.0
  0
LINE
  5
242
330
1F
100
AcDbEntity
  8
0
  6
Continuous
 62
     7
370
    25
100
AcDbLine
 10
78.8129549519
 20
-16.4597695405
 30
0.0
 11
78.1161654459
 21
-17.9956401598
 31
0.0
  0
LINE
  5
243
330
1F
100
AcDbEntity
  8
0
  6
Continuous
 62
     7
370
    25
100
AcDbLine
 10
73.8103181038
 20
-17.7080321794
 30
0.0
 11
76.9466823025
 21
-18.5484184337
 31
0.0
  0
LINE
  5
244
330
1F
100
AcDbEntity
  8
0
  6
Continuous
 62
     7
370
    25
100
AcDbLine
 10
75.8784387178
 20
-2.0
 30
0.0
 11
79.0156827637
 21
-2.0
 31
0.0
  0
LINE
  5
245
330
1F
100
AcDbEntity
  8
0
  6
Continuous
 62
     7
370
    25
100
AcDbLine
 10
80.0048844999
 20
-2.8534396877
 30
0.0
 11
80.2428410956
 21
-4.4595162166
 31
0.0
  0
LINE
  5
246
330
1F
100
AcDbEntity
  8
0
  6
Continuous
 62
     7
370
    25
100
AcDbLine
 10
106.9736796529
 20
-8.0058148423
 30
0.0
 11
81.0715936084
 21
-5.3
 31
0.0
  0
LINE
  5
247
330
1F
100
AcDbEntity
  8
0
  6
Continuous
 62
     7
370
    25
100
AcDbLine
 10
109.9736796529
 20
4.9941851577
 30
0.0
 11
109.9736796529
 21
-5.0058148423
 31
0.0
  0
LINE
  5
248
330
1F
100
AcDbEntity
  8
0
  6
Continuous
 62
     7
370
    25
100
AcDbLine
 10
106.9736796529
 20
7.9941851577
 30
0.0
 11
81.1041546657
 21
5.2988704355
 31
0.0
  0
LINE
  5
249
330
1F
100
AcDbEntity
  8
0
  6
Continuous
 62
     7
370
    25
100
AcDbLine
 10
80.3875704693
 20
4.4993772484
 30
0.0
 11
80.112036057
 21
2.8354977568
 31
0.0
  0
LINE
  5
24A
330
1F
100
AcDbEntity
  8
0
  6
Continuous
 62
     7
370
    25
100
AcDbLine
 10
75.8784684824
 20
1.9988704355
 30
0.0
 11
79.1254716304
 21
1.9988704355
 31
0.0
  0
LINE
  5
24B
330
1F
100
AcDbEntity
  8
0
  6
Continuous
 62
     7
370
    25
100
AcDbLine
 10
73.8105817062
 20
17.7069334002
 30
0.0
 11
76.8409267535
 21
18.5189119084
 31
0.0
  0
LINE
  5
24C
330
1F
100
AcDbEntity
  8
0
  6
Continuous
 62
     7
370
    25
100
AcDbLine
 10
78.0173087029
 20
17.9505767217
 30
0.0
 11
78.6628403178
 21
16.4608136223
 31
0.0
  0
LINE
  5
24D
330
1F
100
AcDbEntity
  8
0
  6
Continuous
 62
     7
370
    25
100
AcDbLine
 10
105.4006972626
 20
19.9538023022
 30
0.0
 11
79.6808869838
 21
15.8634655633
 31
0.0
  0
LINE
  5
24E
330
1F
100
AcDbEntity
  8
0
  6
Continuous
 62
     7
370
    25
100
AcDbLine
 10
104.9338271552
 20
33.2872951793
 30
0.0
 11
107.5220176062
 21
23.6280369164
 31
0.0
  0
LINE
  5
24F
330
1F
100
AcDbEntity
  8
0
  6
Continuous
 62
     7
370
    25
100
AcDbLine
 10
101.259592541
 20
35.4086155229
 30
0.0
 11
76.9691490247
 21
26.1096156682
 31
0.0
  0
LINE
  5
250
330
1F
100
AcDbEntity
  8
0
  6
Continuous
 62
     7
370
    25
100
AcDbLine
 10
76.4839059059
 20
25.1518989134
 30
0.0
 11
76.6484038023
 21
23.4734011872
 31
0.0
  0
LINE
  5
251
330
1F
100
AcDbEntity
  8
0
  6
Continuous
 62
     7
370
    25
100
AcDbLine
 10
72.775626629
 20
21.5695533335
 30
0.0
 11
75.9119908277
 21
22.4099395877
 31
0.0
  0
LINE
  5
252
330
1F
100
AcDbEntity
  8
0
  6
Continuous
 62
     7
370
    25
100
AcDbLine
 10
66.7126555291
 20
36.2071685513
 30
0.0
 11
69.4295885707
 21
37.7757905743
 31
0.0
  0
LINE
  5
253
330
1F
100
AcDbEntity
  8
0
  6
Continuous
 62
     7
370
    25
100
AcDbLine
 10
70.7129822476
 20
37.5312909922
 30
0.0
 11
71.7220969689
 21
36.2593662156
 31
0.0
  0
LINE
  5
254
330
1F
100
AcDbEntity
  8
0
  6
Continuous
 62
     7
370
    25
100
AcDbLine
 10
96.6448315368
 20
46.5536007951
 30
0.0
 11
72.8600595902
 21
35.9458621642
 31
0.0
  0
LINE
  5
255
330
1F
100
AcDbEntity
  8
0
  6
Continuous
 62
     7
370
    25
100
AcDbLine
 10
92.7429077482
 20
59.3119310443
 30
0.0
 11
97.7429077482
 21
50.6516770064
 31
0.0
  0
LINE
  5
256
330
1F
100
AcDbEntity
  8
0
  6
Continuous
 62
     7
370
    25
100
AcDbLine
 10
88.6448315368
 20
60.4100072556
 30
0.0
 11
67.5888230752
 21
45.1410337413
 31
0.0
  0
LINE
  5
257
330
1F
100
AcDbEntity
  8
0
  6
Continuous
 62
     7
370
    25
100
AcDbLine
 10
67.3679895507
 20
44.090360233
 30
0.0
 11
67.9613094959
 21
42.5116311183
 31
0.0
  0
LINE
  5
258
330
1F
100
AcDbEntity
  8
0
  6
Continuous
 62
     7
370
    25
100
AcDbLine
 10
64.7132460883
 20
39.6703068172
 30
0.0
 11
67.5252333006
 21
41.2938083912
 31
0.0
  0
LINE
  5
259
330
1F
100
AcDbEntity
  8
0
  6
Continuous
 62
     7
370
    25
100
AcDbLine
 10
55.0683721256
 20
52.2399450008
 30
0.0
 11
57.2867386647
 21
54.4583115399
 31
0.0
  0
LINE
  5
25A
330
1F
100
AcDbEntity
  8
0
  6
Continuous
 62
     7
370
    25
100
AcDbLine
 10
58.5896829108
 20
54.554309805
 30
0.0
 11
59.893611238
 21
53.5869029228
 31
0.0
  0
LINE
  5
25B
330
1F
100
AcDbEntity
  8
0
  6
Continuous
 62
     7
370
    25
100
AcDbLine
 10
81.3027802549
 20
69.9808483271
 30
0.0
 11
61.0739395424
 21
53.5786076618
 31
0.0
  0
LINE
  5
25C
330
1F
100
AcDbEntity
  8
0
  6
Continuous
 62
     7
370
    25
100
AcDbLine
 10
74.2317124431
 20
81.2945568261
 30
0.0
 11
81.3027802549
 21
74.2234890143
 31
0.0
  0
LINE
  5
25D
330
1F
100
AcDbEntity
  8
0
  6
Continuous
 62
     7
370
    25
100
AcDbLine
 10
69.9890717559
 20
81.2945568261
 30
0.0
 11
53.602430529
 21
61.096164964
 31
0.0
  0
LINE
  5
25E
330
1F
100
AcDbEntity
  8
0
  6
Continuous
 62
     7
370
    25
100
AcDbLine
 10
53.6610560385
 20
60.0241363654
 30
0.0
 11
54.6427642587
 21
58.6527636425
 31
0.0
  0
LINE
  5
25F
330
1F
100
AcDbEntity
  8
0
  6
Continuous
 62
     7
370
    25
100
AcDbLine
 10
52.2407647703
 20
55.0675944496
 30
0.0
 11
54.5367427148
 21
57.3635723941
 31
0.0
  0
LINE
  5
260
330
1F
100
AcDbEntity
  8
0
  6
Continuous
 62
     7
370
    25
100
AcDbLine
 10
39.6712701665
 20
64.7126555291
 30
0.0
 11
41.2398921894
 21
67.4295885707
 31
0.0
  0
LINE
  5
261
330
1F
100
AcDbEntity
  8
0
  6
Continuous
 62
     7
370
    25
100
AcDbLine
 10
42.4735935077
 20
67.8595425599
 30
0.0
 11
43.98347488
 21
67.2625807523
 31
0.0
  0
LINE
  5
262
330
1F
100
AcDbEntity
  8
0
  6
Continuous
 62
     7
370
    25
100
AcDbLine
 10
60.4200788578
 20
88.6390166946
 30
0.0
 11
45.1257314443
 21
67.5600595902
 31
0.0
  0
LINE
  5
263
330
1F
100
AcDbEntity
  8
0
  6
Continuous
 62
     7
370
    25
100
AcDbLine
 10
50.6617486086
 20
97.7370929059
 30
0.0
 11
59.3220026465
 21
92.7370929059
 31
0.0
  0
LINE
  5
264
330
1F
100
AcDbEntity
  8
0
  6
Continuous
 62
     7
370
    25
100
AcDbLine
 10
46.5636723973
 20
96.6390166946
 30
0.0
 11
35.9631209244
 21
72.8876935107
 31
0.0
  0
LINE
  5
265
330
1F
100
AcDbEntity
  8
0
  6
Continuous
 62
     7
370
    25
100
AcDbLine
 10
36.2972102363
 20
71.8673667991
 30
0.0
 11
37.6004049387
 21
70.7968072527
 31
0.0
  0
LINE
  5
266
330
1F
100
AcDbEntity
  8
0
  6
Continuous
 62
     7
370
    25
100
AcDbLine
 10
36.2081616652
 20
66.7121165237
 30
0.0
 11
37.8316632392
 21
69.5241037361
 31
0.0
  0
LINE
  5
267
330
1F
100
AcDbEntity
  8
0
  6
Continuous
 62
     7
370
    25
100
AcDbLine
 10
21.5706367054
 20
72.7753055258
 30
0.0
 11
22.3826152136
 21
75.8056505731
 31
0.0
  0
LINE
  5
268
330
1F
100
AcDbEntity
  8
0
  6
Continuous
 62
     7
370
    25
100
AcDbLine
 10
23.4629988979
 20
76.5402596325
 30
0.0
 11
25.0759373951
 21
76.3544248602
 31
0.0
  0
LINE
  5
269
330
1F
100
AcDbEntity
  8
0
  6
Continuous
 62
     7
370
    25
100
AcDbLine
 10
35.4198489355
 20
101.2565825571
 30
0.0
 11
26.102279322
 21
76.9374051057
 31
0.0
  0
LINE
  5
26A
330
1F
100
AcDbEntity
  8
0
  6
Continuous
 62
     7
370
    25
100
AcDbLine
 10
23.639270329
 20
107.5190076224
 30
0.0
 11
33.2985285919
 21
104.9308171713
 31
0.0
  0
LINE
  5
26B
330
1F
100
AcDbEntity
  8
0
  6
Continuous
 62
     7
370
    25
100
AcDbLine
 10
19.9650357149
 20
105.3976872788
 30
0.0
 11
15.8729840607
 21
79.7120461971
 31
0.0
  0
LINE
  5
26C
330
1F
100
AcDbEntity
  8
0
  6
Continuous
 62
     7
370
    25
100
AcDbLine
 10
16.4597695405
 20
78.8129549519
 30
0.0
 11
17.9956401598
 21
78.1161654459
 31
0.0
  0
LINE
  5
26D
330
1F
100
AcDbEntity
  8
0
  6
Continuous
 62
     7
370
    25
100
AcDbLine
 10
17.7080321794
 20
73.8103181038
 30
0.0
 11
18.5484184337
 21
76.9466823025
 31
0.0
  0
LINE
  5
26E
330
1F
100
AcDbEntity
  8
0
  6
Continuous
 62
     7
370
    25
100
AcDbLine
 10
2.0
 20
75.8784387178
 30
0.0
 11
2.0
 21
79.0156827637
 31
0.0
  0
LINE
  5
26F
330
1F
100
AcDbEntity
  8
0
  6
Continuous
 62
     7
370
    25
100
AcDbLine
 10
2.8534396877
 20
80.0048844999
 30
0.0
 11
4.4595162166
 21
80.2428410956
 31
0.0
  0
LINE
  5
270
330
1F
100
AcDbEntity
  8
0
  6
Continuous
 62
     7
370
    25
100
AcDbLine
 10
8.0058148423
 20
106.9736796529
 30
0.0
 11
5.3
 21
81.0715936084
 31
0.0
  0
LINE
  5
271
330
1F
100
AcDbEntity
  8
0
  6
Continuous
 62
     7
370
    25
100
AcDbLine
 10
-4.9941851577
 20
109.9736796529
 30
0.0
 11
5.0058148423
 21
109.9736796529
 31
0.0
  0
LINE
  5
272
330
1F
100
AcDbEntity
  8
0
  6
Continuous
 62
     7
370
    25
100
AcDbLine
 10
-7.9941851577
 20
106.9736796529
 30
0.0
 11
-5.2988704355
 21
81.1041546657
 31
0.0
  0
LINE
  5
273
330
1F
100
AcDbEntity
  8
0
  6
Continuous
 62
     7
370
    25
100
AcDbLine
 10
-4.4993772484
 20
80.3875704693
 30
0.0
 11
-2.8354977568
 21
80.112036057
 31
0.0
  0
LINE
  5
274
330
1F
100
AcDbEntity
  8
0
  6
Continuous
 62
     7
370
    25
100
AcDbLine
 10
-1.9988704355
 20
75.8784684824
 30
0.0
 11
-1.9988704355
 21
79.1254716304
 31
0.0
  0
LINE
  5
275
330
1F
100
AcDbEntity
  8
0
  6
Continuous
 62
     7
370
    25
100
AcDbLine
 10
-17.7069334002
 20
73.8105817062
 30
0.0
 11
-18.5189119084
 21
76.8409267535
 31
0.0
  0
LINE
  5
276
330
1F
100
AcDbEntity
  8
0
  6
Continuous
 62
     7
370
    25
100
AcDbLine
 10
-17.9505767217
 20
78.0173087029
 30
0.0
 11
-16.4608136223
 21
78.6628403178
 31
0.0
  0
LINE
  5
277
330
1F
100
AcDbEntity
  8
0
  6
Continuous
 62
     7
370
    25
100
AcDbLine
 10
-19.9538023022
 20
105.4006972626
 30
0.0
 11
-15.8634655633
 21
79.6808869838
 31
0.0
  0
LINE
  5
278
330
1F
100
AcDbEntity
  8
0
  6
Continuous
 62
     7
370
    25
100
AcDbLine
 10
-33.2872951793
 20
104.9338271552
 30
0.0
 11
-23.6280369164
 21
107.5220176062
 31
0.0
  0
LINE
  5
279
330
1F
100
AcDbEntity
  8
0
  6
Continuous
 62
     7
370
    25
100
AcDbLine
 10
-35.4086155229
 20
101.259592541
 30
0.0
 11
-26.1096156682
 21
76.9691490247
 31
0.0
  0
LINE
  5
27A
330
1F
100
AcDbEntity
  8
0
  6
Continuous
 62
     7
370
    25
100
AcDbLine
 10
-25.1518989134
 20
76.4839059059
 30
0.0
 11
-23.4734011872
 21
76.6484038023
 31
0.0
  0
LINE
  5
27B
330
1F
100
AcDbEntity
  8
0
  6
Continuous
 62
     7
370
    25
100
AcDbLine
 10
-21.5695533335
 20
72.775626629
 30
0.0
 11
-22.4099395877
 21
75.9119908277
 31
0.0
  0
LINE
  5
27C
330
1F
100
AcDbEntity
  8
0
  6
Continuous
 62
     7
370
    25
100
AcDbLine
 10
-36.2071685513
 20
66.7126555291
 30
0.0
 11
-37.7757905743
 21
69.4295885707
 31
0.0
  0
LINE
  5
27D
330
1F
100
AcDbEntity
  8
0
  6
Continuous
 62
     7
370
    25
100
AcDbLine
 10
-37.5312909922
 20
70.7129822476
 30
0.0
 11
-36.2593662156
 21
71.7220969689
 31
0.0
  0
LINE
  5
27E
330
1F
100
AcDbEntity
  8
0
  6
Continuous
 62
     7
370
    25
100
AcDbLine
 10
-46.5536007951
 20
96.6448315368
 30
0.0
 11
-35.9458621642
 21
72.8600595902
 31
0.0
  0
LINE
  5
27F
330
1F
100
AcDbEntity
  8
0
  6
Continuous
 62
     7
370
    25
100
AcDbLine
 10
-59.3119310443
 20
92.7429077482
 30
0.0
 11
-50.6516770064
 21
97.7429077482
 31
0.0
  0
LINE
  5
280
330
1F
100
AcDbEntity
  8
0
  6
Continuous
 62
     7
370
    25
100
AcDbLine
 10
-60.4100072556
 20
88.6448315368
 30
0.0
 11
-45.1410337413
 21
67.5888230752
 31
0.0
  0
LINE
  5
281
330
1F
100
AcDbEntity
  8
0
  6
Continuous
 62
     7
370
    25
100
AcDbLine
 10
-44.090360233
 20
67.3679895507
 30
0.0
 11
-42.5116311183
 21
67.9613094959
 31
0.0
  0
LINE
  5
282
330
1F
100
AcDbEntity
  8
0
  6
Continuous
 62
     7
370
    25
100
AcDbLine
 10
-39.6703068172
 20
64.7132460883
 30
0.0
 11
-41.2938083912
 21
67.5252333006
 31
0.0
  0
LINE
  5
283
330
1F
100
AcDbEntity
  8
0
  6
Continuous
 62
     7
370
    25
100
AcDbLine
 10
-52.2399450008
 20
55.0683721256
 30
0.0
 11
-54.4583115399
 21
57.2867386647
 31
0.0
  0
LINE
  5
284
330
1F
100
AcDbEntity
  8
0
  6
Continuous
 62
     7
370
    25
100
AcDbLine
 10
-54.554309805
 20
58.5896829108
 30
0.0
 11
-53.5869029228
 21
59.893611238
 31
0.0
  0
LINE
  5
285
330
1F
100
AcDbEntity
  8
0
  6
Continuous
 62
     7
370
    25
100
AcDbLine
 10
-69.9808483271
 20
81.3027802549
 30
0.0
 11
-53.5786076618
 21
61.0739395424
 31
0.0
  0
LINE
  5
286
330
1F
100
AcDbEntity
  8
0
  6
Continuous
 62
     7
370
    25
100
AcDbLine
 10
-81.2945568261
 20
74.2317124431
 30
0.0
 11
-74.2234890143
 21
81.3027802549
 31
0.0
  0
LINE
  5
287
330
1F
100
AcDbEntity
  8
0
  6
Continuous
 62
     7
370
    25
100
AcDbLine
 10
-81.2945568261
 20
69.9890717559
 30
0.0
 11
-61.096164964
 21
53.602430529
 31
0.0
  0
LINE
  5
288
330
1F
100
AcDbEntity
  8
0
  6
Continuous
 62
     7
370
    25
100
AcDbLine
 10
-60.0241363654
 20
53.6610560385
 30
0.0
 11
-58.6527636425
 21
54.6427642587
 31
0.0
  0
LINE
  5
289
330
1F
100
AcDbEntity
  8
0
  6
Continuous
 62
     7
370
    25
100
AcDbLine
 10
-55.0675944496
 20
52.2407647703
 30
0.0
 11
-57.3635723941
 21
54.5367427148
 31
0.0
  0
LINE
  5
28A
330
1F
100
AcDbEntity
  8
0
  6
Continuous
 62
     7
370
    25
100
AcDbLine
 10
-64.7126555291
 20
39.6712701665
 30
0.0
 11
-67.4295885707
 21
41.2398921894
 31
0.0
  0
LINE
  5
28B
330
1F
100
AcDbEntity
  8
0
  6
Continuous
 62
     7
370
    25
100
AcDbLine
 10
-67.8595425599
 20
42.4735935077
 30
0.0
 11
-67.2625807523
 21
43.98347488
 31
0.0
  0
LINE
  5
28C
330
1F
100
AcDbEntity
  8
0
  6
Continuous
 62
     7
370
    25
100
AcDbLine
 10
-88.6390166946
 20
60.4200788578
 30
0.0
 11
-67.5600595902
 21
45.1257314443
 31
0.0
  0
LINE
  5
28D
330
1F
100
AcDbEntity
  8
0
  6
Continuous
 62
     7
370
    25
100
AcDbLine
 10
-97.7370929059
 20
50.6617486086
 30
0.0
 11
-92.7370929059
 21
59.3220026465
 31
0.0
  0
LINE
  5
28E
330
1F
100
AcDbEntity
  8
0
  6
Continuous
 62
     7
370
    25
100
AcDbLine
 10
-96.6390166946
 20
46.5636723973
 30
0.0
 11
-72.8876935107
 21
35.9631209244
 31
0.0
  0
LINE
  5
28F
330
1F
100
AcDbEntity
  8
0
  6
Continuous
 62
     7
370
    25
100
AcDbLine
 10
-71.8673667991
 20
36.2972102363
 30
0.0
 11
-70.7968072527
 21
37.6004049387
 31
0.0
  0
LINE
  5
290
330
1F
100
AcDbEntity
  8
0
  6
Continuous
 62
     7
370
    25
100
AcDbLine
 10
-66.7121165237
 20
36.2081616652
 30
0.0
 11
-69.5241037361
 21
37.8316632392
 31
0.0
  0
LINE
  5
291
330
1F
100
AcDbEntity
  8
0
  6
Continuous
 62
     7
370
    25
100
AcDbLine
 10
6.0
 20
23.5
 30
0.0
 11
6.0
 21
16.4392822228
 31
0.0
  0
LINE
  5
292
330
1F
100
AcDbEntity
  8
0
  6
Continuous
 62
     7
370
    25
100
AcDbLine
 10
-6.0
 20
23.5
 30
0.0
 11
6.0
 21
23.5
 31
0.0
  0
LINE
  5
293
330
1F
100
AcDbEntity
  8
0
  6
Continuous
 62
     7
370
    25
100
AcDbLine
 10
-6.0
 20
23.5
 30
0.0
 11
-6.0
 21
16.4392822228
 31
0.0
  0
ARC
  5
294
330
1F
100
AcDbEntity
  8
0
  6
Continuous
 62
     7
370
    25
100
AcDbCircle
 10
-75.546831528
 20
23.3485410399
 30
0.0
 40
0.9999999999999996
100
AcDbArc
 50
173.4276438718
 51
255.0
  0
ARC
  5
295
330
1F
100
AcDbEntity
  8
0
  6
Continuous
 62
     7
370
    25
100
AcDbCircle
 10
-77.3478529647
 20
25.1903952531
 30
0.0
 40
1.00000000000001
100
AcDbArc
 50
353.4276438718
 51
65.7670282972
  0
ARC
  5
296
330
1F
100
AcDbEntity
  8
0
  6
Continuous
 62
     7
370
    25
100
AcDbCircle
 10
-102.0330396925
 20
32.5220714566
 30
0.0
 40
3.000000000001217
100
AcDbArc
 50
74.9999999998
 51
165.0
  0
ARC
  5
297
330
1F
100
AcDbEntity
  8
0
  6
Continuous
 62
     7
370
    25
100
AcDbCircle
 10
-104.6212301435
 20
22.8628131937
 30
0.0
 40
2.99999999999878
100
AcDbArc
 50
165.0
 51
254.9999999999
  0
ARC
  5
298
330
1F
100
AcDbEntity
  8
0
  6
Continuous
 62
     7
370
    25
100
AcDbCircle
 10
-79.7236190502
 20
16.8729170929
 30
0.0
 40
0.9999999999998855
100
AcDbArc
 50
270.6630904393
 51
335.597286907
  0
ARC
  5
299
330
1F
100
AcDbEntity
  8
0
  6
Continuous
 62
     7
370
    25
100
AcDbCircle
 10
-77.2055013476
 20
17.5824926074
 30
0.0
 40
1.000000000000002
100
AcDbArc
 50
75.0
 51
155.597286907
  0
ARC
  5
29A
330
1F
100
AcDbEntity
  8
0
  6
Continuous
 62
     7
370
    25
100
AcDbCircle
 10
0.0
 20
0.0
 30
0.0
 40
75.90479209018109
100
AcDbArc
 50
166.5089967002
 51
178.4901503662
  0
ARC
  5
29B
330
1F
100
AcDbEntity
  8
0
  6
Continuous
 62
     7
370
    25
100
AcDbCircle
 10
-79.0156827637
 20
3.0
 30
0.0
 40
1.000000000000009
100
AcDbArc
 50
188.4276438718
 51
270.0
  0
ARC
  5
29C
330
1F
100
AcDbEntity
  8
0
  6
Continuous
 62
     7
370
    25
100
AcDbCircle
 10
-81.2320428318
 20
4.3129559044
 30
0.0
 40
1.00000000000001
100
AcDbArc
 50
8.4276438718
 51
80.7670282972
  0
ARC
  5
29D
330
1F
100
AcDbEntity
  8
0
  6
Continuous
 62
     7
370
    25
100
AcDbCircle
 10
-106.9736796529
 20
5.0058148423
 30
0.0
 40
3.000000000001114
100
AcDbArc
 50
89.9999999998
 51
180.0
  0
ARC
  5
29E
330
1F
100
AcDbEntity
  8
0
  6
Continuous
 62
     7
370
    25
100
AcDbCircle
 10
-106.9736796529
 20
-4.9941851577
 30
0.0
 40
2.999999999998892
100
AcDbArc
 50
180.0
 51
269.9999999999
  0
ARC
  5
29F
330
1F
100
AcDbEntity
  8
0
  6
Continuous
 62
     7
370
    25
100
AcDbCircle
 10
-81.3741348959
 20
-4.3360045698
 30
0.0
 40
0.9999999999999053
100
AcDbArc
 50
285.6630904393
 51
350.597286907
  0
ARC
  5
2A0
330
1F
100
AcDbEntity
  8
0
  6
Continuous
 62
     7
370
    25
100
AcDbCircle
 10
-79.1254716304
 20
-2.9988704355
 30
0.0
 40
0.9999999999999931
100
AcDbArc
 50
90.0
 51
170.597286907
  0
ARC
  5
2A1
330
1F
100
AcDbEntity
  8
0
  6
Continuous
 62
     7
370
    25
100
AcDbCircle
 10
0.0
 20
0.0
 30
0.0
 40
75.90479209017538
100
AcDbArc
 50
181.5089967002
 51
193.4901503662
  0
ARC
  5
2A2
330
1F
100
AcDbEntity
  8
0
  6
Continuous
 62
     7
370
    25
100
AcDbCircle
 10
-77.0997457986
 20
-17.5529860822
 30
0.0
 40
1.000000000000038
100
AcDbArc
 50
203.4276438718
 51
285.0
  0
ARC
  5
2A3
330
1F
100
AcDbEntity
  8
0
  6
Continuous
 62
     7
370
    25
100
AcDbCircle
 10
-79.5804032222
 20
-16.8584042618
 30
0.0
 40
1.00000000000006
100
AcDbArc
 50
23.4276438718
 51
95.7670282972
  0
ARC
  5
2A4
330
1F
100
AcDbEntity
  8
0
  6
Continuous
 62
     7
370
    25
100
AcDbCircle
 10
-104.6242401273
 20
-22.8515797811
 30
0.0
 40
3.000000000001092
100
AcDbArc
 50
104.9999999998
 51
195.0
  0
ARC
  5
2A5
330
1F
100
AcDbEntity
  8
0
  6
Continuous
 62
     7
370
    25
100
AcDbCircle
 10
-102.0360496763
 20
-32.510838044
 30
0.0
 40
2.999999999998846
100
AcDbArc
 50
195.0
 51
284.9999999999
  0
ARC
  5
2A6
330
1F
100
AcDbEntity
  8
0
  6
Continuous
 62
     7
370
    25
100
AcDbCircle
 10
-77.4791379256
 20
-25.2494346867
 30
0.0
 40
0.9999999999999056
100
AcDbArc
 50
300.6630904393
 51
5.597286907
  0
ARC
  5
2A7
330
1F
100
AcDbEntity
  8
0
  6
Continuous
 62
     7
370
    25
100
AcDbCircle
 10
-75.6531717826
 20
-23.375865414
 30
0.0
 40
0.9999999999999881
100
AcDbArc
 50
105.0
 51
185.597286907
  0
ARC
  5
2A8
330
1F
100
AcDbEntity
  8
0
  6
Continuous
 62
     7
370
    25
100
AcDbCircle
 10
0.0
 20
0.0
 30
0.0
 40
75.90479209017835
100
AcDbArc
 50
196.5089967002
 51
208.4901503662
  0
ARC
  5
2A9
330
1F
100
AcDbEntity
  8
0
  6
Continuous
 62
     7
370
    25
100
AcDbCircle
 10
-69.9295885707
 20
-36.9097651705
 30
0.0
 40
1.000000000000026
100
AcDbArc
 50
218.4276438718
 51
300.0
  0
ARC
  5
2AA
330
1F
100
AcDbEntity
  8
0
  6
Continuous
 62
     7
370
    25
100
AcDbCircle
 10
-72.5054906458
 20
-36.8808920373
 30
0.0
 40
1.000000000000048
100
AcDbArc
 50
38.4276438718
 51
110.7670282972
  0
ARC
  5
2AB
330
1F
100
AcDbEntity
  8
0
  6
Continuous
 62
     7
370
    25
100
AcDbCircle
 10
-95.1448315368
 20
-49.1516770064
 30
0.0
 40
3.000000000001073
100
AcDbArc
 50
119.9999999998
 51
210.0
  0
ARC
  5
2AC
330
1F
100
AcDbEntity
  8
0
  6
Continuous
 62
     7
370
    25
100
AcDbCircle
 10
-90.1448315368
 20
-57.8119310443
 30
0.0
 40
2.999999999999002
100
AcDbArc
 50
210.0
 51
299.9999999999
  0
ARC
  5
2AD
330
1F
100
AcDbEntity
  8
0
  6
Continuous
 62
     7
370
    25
100
AcDbCircle
 10
-68.304065746
 20
-44.4421575563
 30
0.0
 40
0.99999999999999
100
AcDbArc
 50
315.6630904393
 51
20.597286907
  0
ARC
  5
2AE
330
1F
100
AcDbEntity
  8
0
  6
Continuous
 62
     7
370
    25
100
AcDbCircle
 10
-67.0252333006
 20
-42.159833795
 30
0.0
 40
0.9999999999999518
100
AcDbArc
 50
120.0
 51
200.597286907
  0
ARC
  5
2AF
330
1F
100
AcDbEntity
  8
0
  6
Continuous
 62
     7
370
    25
100
AcDbCircle
 10
0.0
 20
0.0
 30
0.0
 40
75.90479209018054
100
AcDbArc
 50
211.5089967002
 51
223.4901503662
  0
ARC
  5
2B0
330
1F
100
AcDbEntity
  8
0
  6
Continuous
 62
     7
370
    25
100
AcDbCircle
 10
-57.9938454458
 20
-53.7512047587
 30
0.0
 40
1.000000000000038
100
AcDbArc
 50
233.4276438718
 51
315.0
  0
ARC
  5
2B1
330
1F
100
AcDbEntity
  8
0
  6
Continuous
 62
     7
370
    25
100
AcDbCircle
 10
-60.4894487029
 20
-54.390007969
 30
0.0
 40
1.000000000000003
100
AcDbArc
 50
53.4276438718
 51
125.7670282972
  0
ARC
  5
2B2
330
1F
100
AcDbEntity
  8
0
  6
Continuous
 62
     7
370
    25
100
AcDbCircle
 10
-79.1814599114
 20
-72.1021686707
 30
0.0
 40
3.000000000000979
100
AcDbArc
 50
134.9999999998
 51
225.0
  0
ARC
  5
2B3
330
1F
100
AcDbEntity
  8
0
  6
Continuous
 62
     7
370
    25
100
AcDbCircle
 10
-72.1103920995
 20
-79.1732364826
 30
0.0
 40
2.99999999999906
100
AcDbArc
 50
225.0
 51
314.9999999999
  0
ARC
  5
2B4
330
1F
100
AcDbEntity
  8
0
  6
Continuous
 62
     7
370
    25
100
AcDbCircle
 10
-54.4741843635
 20
-60.6062208326
 30
0.0
 40
0.9999999999998512
100
AcDbArc
 50
330.6630904393
 51
35.597286907
  0
ARC
  5
2B5
330
1F
100
AcDbEntity
  8
0
  6
Continuous
 62
     7
370
    25
100
AcDbCircle
 10
-53.8296359336
 20
-58.0706791752
 30
0.0
 40
1.000000000000049
100
AcDbArc
 50
135.0
 51
215.597286907
  0
ARC
  5
2B6
330
1F
100
AcDbEntity
  8
0
  6
Continuous
 62
     7
370
    25
100
AcDbCircle
 10
0.0
 20
0.0
 30
0.0
 40
75.90479209017629
100
AcDbArc
 50
226.5089967002
 51
238.4901503662
  0
ARC
  5
2B7
330
1F
100
AcDbEntity
  8
0
  6
Continuous
 62
     7
370
    25
100
AcDbCircle
 10
-42.1059175932
 20
-66.9295885707
 30
0.0
 40
1.000000000000048
100
AcDbArc
 50
248.4276438718
 51
330.0
  0
ARC
  5
2B8
330
1F
100
AcDbEntity
  8
0
  6
Continuous
 62
     7
370
    25
100
AcDbCircle
 10
-44.3511507945
 20
-68.1925347414
 30
0.0
 40
0.9999999999999567
100
AcDbArc
 50
68.4276438718
 51
140.7670282972
  0
ARC
  5
2B9
330
1F
100
AcDbEntity
  8
0
  6
Continuous
 62
     7
370
    25
100
AcDbCircle
 10
-57.8220026465
 20
-90.1390166946
 30
0.0
 40
3.000000000000909
100
AcDbArc
 50
149.9999999998
 51
240.0
  0
ARC
  5
2BA
330
1F
100
AcDbEntity
  8
0
  6
Continuous
 62
     7
370
    25
100
AcDbCircle
 10
-49.1617486086
 20
-95.1390166946
 30
0.0
 40
2.999999999999132
100
AcDbArc
 50
240.0
 51
329.9999999999
  0
ARC
  5
2BB
330
1F
100
AcDbEntity
  8
0
  6
Continuous
 62
     7
370
    25
100
AcDbCircle
 10
-36.9319773396
 20
-72.6400703157
 30
0.0
 40
0.999999999999859
100
AcDbArc
 50
345.6630904393
 51
50.597286907
  0
ARC
  5
2BC
330
1F
100
AcDbEntity
  8
0
  6
Continuous
 62
     7
370
    25
100
AcDbCircle
 10
-36.9656378354
 20
-70.0241037361
 30
0.0
 40
1.000000000000009
100
AcDbArc
 50
150.0
 51
230.597286907
  0
ARC
  5
2BD
330
1F
100
AcDbEntity
  8
0
  6
Continuous
 62
     7
370
    25
100
AcDbCircle
 10
0.0
 20
0.0
 30
0.0
 40
75.90479209017779
100
AcDbArc
 50
241.5089967002
 51
253.4901503662
  0
ARC
  5
2BE
330
1F
100
AcDbEntity
  8
0
  6
Continuous
 62
     7
370
    25
100
AcDbCircle
 10
-23.3485410399
 20
-75.546831528
 30
0.0
 40
0.9999999999999983
100
AcDbArc
 50
263.4276438718
 51
345.0
  0
ARC
  5
2BF
330
1F
100
AcDbEntity
  8
0
  6
Continuous
 62
     7
370
    25
100
AcDbCircle
 10
-25.1903952531
 20
-77.3478529647
 30
0.0
 40
0.9999999999999979
100
AcDbArc
 50
83.4276438718
 51
155.7670282972
  0
ARC
  5
2C0
330
1F
100
AcDbEntity
  8
0
  6
Continuous
 62
     7
370
    25
100
AcDbCircle
 10
-32.5220714566
 20
-102.0330396925
 30
0.0
 40
3.000000000000876
100
AcDbArc
 50
164.9999999998
 51
255.0
  0
ARC
  5
2C1
330
1F
100
AcDbEntity
  8
0
  6
Continuous
 62
     7
370
    25
100
AcDbCircle
 10
-22.8628131937
 20
-104.6212301435
 30
0.0
 40
2.999999999999166
100
AcDbArc
 50
255.0
 51
344.9999999999
  0
ARC
  5
2C2
330
1F
100
AcDbEntity
  8
0
  6
Continuous
 62
     7
370
    25
100
AcDbCircle
 10
-16.8729170929
 20
-79.7236190502
 30
0.0
 40
0.9999999999999363
100
AcDbArc
 50
0.6630904393
 51
65.597286907
  0
ARC
  5
2C3
330
1F
100
AcDbEntity
  8
0
  6
Continuous
 62
     7
370
    25
100
AcDbCircle
 10
-17.5824926074
 20
-77.2055013476
 30
0.0
 40
0.9999999999999957
100
AcDbArc
 50
165.0
 51
245.597286907
  0
ARC
  5
2C4
330
1F
100
AcDbEntity
  8
0
  6
Continuous
 62
     7
370
    25
100
AcDbCircle
 10
0.0
 20
0.0
 30
0.0
 40
75.90479209018115
100
AcDbArc
 50
256.5089967002
 51
268.4901503662
  0
ARC
  5
2C5
330
1F
100
AcDbEntity
  8
0
  6
Continuous
 62
     7
370
    25
100
AcDbCircle
 10
-3.0
 20
-79.0156827637
 30
0.0
 40
1.000000000000026
100
AcDbArc
 50
278.4276438718
 51
0.0
  0
ARC
  5
2C6
330
1F
100
AcDbEntity
  8
0
  6
Continuous
 62
     7
370
    25
100
AcDbCircle
 10
-4.3129559044
 20
-81.2320428318
 30
0.0
 40
1.000000000000026
100
AcDbArc
 50
98.4276438718
 51
170.7670282972
  0
ARC
  5
2C7
330
1F
100
AcDbEntity
  8
0
  6
Continuous
 62
     7
370
    25
100
AcDbCircle
 10
-5.0058148423
 20
-106.9736796529
 30
0.0
 40
3.000000000000753
100
AcDbArc
 50
179.9999999998
 51
270.0
  0
ARC
  5
2C8
330
1F
100
AcDbEntity
  8
0
  6
Continuous
 62
     7
370
    25
100
AcDbCircle
 10
4.9941851577
 20
-106.9736796529
 30
0.0
 40
2.999999999999261
100
AcDbArc
 50
270.0
 51
359.9999999999
  0
ARC
  5
2C9
330
1F
100
AcDbEntity
  8
0
  6
Continuous
 62
     7
370
    25
100
AcDbCircle
 10
4.3360045698
 20
-81.3741348959
 30
0.0
 40
0.9999999999998892
100
AcDbArc
 50
15.6630904393
 51
80.597286907
  0
ARC
  5
2CA
330
1F
100
AcDbEntity
  8
0
  6
Continuous
 62
     7
370
    25
100
AcDbCircle
 10
2.9988704355
 20
-79.1254716304
 30
0.0
 40
0.9999999999999925
100
AcDbArc
 50
180.0
 51
260.597286907
  0
ARC
  5
2CB
330
1F
100
AcDbEntity
  8
0
  6
Continuous
 62
     7
370
    25
100
AcDbCircle
 10
0.0
 20
0.0
 30
0.0
 40
75.90479209017646
100
AcDbArc
 50
271.5089967002
 51
283.4901503662
  0
ARC
  5
2CC
330
1F
100
AcDbEntity
  8
0
  6
Continuous
 62
     7
370
    25
100
AcDbCircle
 10
17.5529860822
 20
-77.0997457986
 30
0.0
 40
0.9999999999999893
100
AcDbArc
 50
293.4276438718
 51
15.0
  0
ARC
  5
2CD
330
1F
100
AcDbEntity
  8
0
  6
Continuous
 62
     7
370
    25
100
AcDbCircle
 10
16.8584042618
 20
-79.5804032222
 30
0.0
 40
1.000000000000012
100
AcDbArc
 50
113.4276438718
 51
185.7670282972
  0
ARC
  5
2CE
330
1F
100
AcDbEntity
  8
0
  6
Continuous
 62
     7
370
    25
100
AcDbCircle
 10
22.8515797811
 20
-104.6242401273
 30
0.0
 40
3.000000000000707
100
AcDbArc
 50
194.9999999998
 51
285.0
  0
ARC
  5
2CF
330
1F
100
AcDbEntity
  8
0
  6
Continuous
 62
     7
370
    25
100
AcDbCircle
 10
32.510838044
 20
-102.0360496763
 30
0.0
 40
2.999999999999292
100
AcDbArc
 50
285.0
 51
14.9999999999
  0
ARC
  5
2D0
330
1F
100
AcDbEntity
  8
0
  6
Continuous
 62
     7
370
    25
100
AcDbCircle
 10
25.2494346867
 20
-77.4791379256
 30
0.0
 40
0.9999999999999329
100
AcDbArc
 50
30.6630904393
 51
95.597286907
  0
ARC
  5
2D1
330
1F
100
AcDbEntity
  8
0
  6
Continuous
 62
     7
370
    25
100
AcDbCircle
 10
23.375865414
 20
-75.6531717826
 30
0.0
 40
1.000000000000001
100
AcDbArc
 50
195.0
 51
275.597286907
  0
ARC
  5
2D2
330
1F
100
AcDbEntity
  8
0
  6
Continuous
 62
     7
370
    25
100
AcDbCircle
 10
0.0
 20
0.0
 30
0.0
 40
75.90479209017914
100
AcDbArc
 50
286.5089967002
 51
298.4901503662
  0
ARC
  5
2D3
330
1F
100
AcDbEntity
  8
0
  6
Continuous
 62
     7
370
    25
100
AcDbCircle
 10
36.9097651705
 20
-69.9295885707
 30
0.0
 40
1.00000000000007
100
AcDbArc
 50
308.4276438718
 51
30.0
  0
ARC
  5
2D4
330
1F
100
AcDbEntity
  8
0
  6
Continuous
 62
     7
370
    25
100
AcDbCircle
 10
36.8808920373
 20
-72.5054906458
 30
0.0
 40
1.000000000000032
100
AcDbArc
 50
128.4276438718
 51
200.7670282972
  0
ARC
  5
2D5
330
1F
100
AcDbEntity
  8
0
  6
Continuous
 62
     7
370
    25
100
AcDbCircle
 10
49.1516770064
 20
-95.1448315368
 30
0.0
 40
3.000000000000682
100
AcDbArc
 50
209.9999999998
 51
300.0
  0
ARC
  5
2D6
330
1F
100
AcDbEntity
  8
0
  6
Continuous
 62
     7
370
    25
100
AcDbCircle
 10
57.8119310443
 20
-90.1448315368
 30
0.0
 40
2.999999999999342
100
AcDbArc
 50
300.0
 51
29.9999999999
  0
ARC
  5
2D7
330
1F
100
AcDbEntity
  8
0
  6
Continuous
 62
     7
370
    25
100
AcDbCircle
 10
44.4421575563
 20
-68.304065746
 30
0.0
 40
0.9999999999998503
100
AcDbArc
 50
45.6630904393
 51
110.597286907
  0
ARC
  5
2D8
330
1F
100
AcDbEntity
  8
0
  6
Continuous
 62
     7
370
    25
100
AcDbCircle
 10
42.159833795
 20
-67.0252333006
 30
0.0
 40
1.000000000000019
100
AcDbArc
 50
210.0
 51
290.597286907
  0
ARC
  5
2D9
330
1F
100
AcDbEntity
  8
0
  6
Continuous
 62
     7
370
    25
100
AcDbCircle
 10
0.0
 20
0.0
 30
0.0
 40
75.90479209018022
100
AcDbArc
 50
301.5089967002
 51
313.4901503662
  0
ARC
  5
2DA
330
1F
100
AcDbEntity
  8
0
  6
Continuous
 62
     7
370
    25
100
AcDbCircle
 10
53.7512047587
 20
-57.9938454458
 30
0.0
 40
1.000000000000028
100
AcDbArc
 50
323.4276438718
 51
45.0
  0
ARC
  5
2DB
330
1F
100
AcDbEntity
  8
0
  6
Continuous
 62
     7
370
    25
100
AcDbCircle
 10
54.390007969
 20
-60.4894487029
 30
0.0
 40
0.9999999999999979
100
AcDbArc
 50
143.4276438718
 51
215.7670282972
  0
ARC
  5
2DC
330
1F
100
AcDbEntity
  8
0
  6
Continuous
 62
     7
370
    25
100
AcDbCircle
 10
72.1021686707
 20
-79.1814599114
 30
0.0
 40
3.000000000000577
100
AcDbArc
 50
224.9999999998
 51
315.0
  0
ARC
  5
2DD
330
1F
100
AcDbEntity
  8
0
  6
Continuous
 62
     7
370
    25
100
AcDbCircle
 10
79.1732364826
 20
-72.1103920995
 30
0.0
 40
2.999999999999472
100
AcDbArc
 50
315.0
 51
44.9999999999
  0
ARC
  5
2DE
330
1F
100
AcDbEntity
  8
0
  6
Continuous
 62
     7
370
    25
100
AcDbCircle
 10
60.6062208326
 20
-54.4741843635
 30
0.0
 40
0.9999999999998992
100
AcDbArc
 50
60.6630904393
 51
125.597286907
  0
ARC
  5
2DF
330
1F
100
AcDbEntity
  8
0
  6
Continuous
 62
     7
370
    25
100
AcDbCircle
 10
58.0706791752
 20
-53.8296359336
 30
0.0
 40
1.000000000000048
100
AcDbArc
 50
225.0
 51
305.597286907
  0
ARC
  5
2E0
330
1F
100
AcDbEntity
  8
0
  6
Continuous
 62
     7
370
    25
100
AcDbCircle
 10
0.0
 20
0.0
 30
0.0
 40
75.90479209017856
100
AcDbArc
 50
316.5089967002
 51
328.4901503662
  0
ARC
  5
2E1
330
1F
100
AcDbEntity
  8
0
  6
Continuous
 62
     7
370
    25
100
AcDbCircle
 10
66.9295885707
 20
-42.1059175932
 30
0.0
 40
0.9999999999999827
100
AcDbArc
 50
338.4276438718
 51
60.0
  0
ARC
  5
2E2
330
1F
100
AcDbEntity
  8
0
  6
Continuous
 62
     7
370
    25
100
AcDbCircle
 10
68.1925347414
 20
-44.3511507945
 30
0.0
 40
1.00000000000002
100
AcDbArc
 50
158.4276438718
 51
230.7670282972
  0
ARC
  5
2E3
330
1F
100
AcDbEntity
  8
0
  6
Continuous
 62
     7
370
    25
100
AcDbCircle
 10
90.1390166946
 20
-57.8220026465
 30
0.0
 40
3.000000000000581
100
AcDbArc
 50
239.9999999998
 51
330.0
  0
ARC
  5
2E4
330
1F
100
AcDbEntity
  8
0
  6
Continuous
 62
     7
370
    25
100
AcDbCircle
 10
95.1390166946
 20
-49.1617486086
 30
0.0
 40
2.99999999999952
100
AcDbArc
 50
330.0
 51
59.9999999999
  0
ARC
  5
2E5
330
1F
100
AcDbEntity
  8
0
  6
Continuous
 62
     7
370
    25
100
AcDbCircle
 10
72.6400703157
 20
-36.9319773396
 30
0.0
 40
0.99999999999985
100
AcDbArc
 50
75.6630904393
 51
140.597286907
  0
ARC
  5
2E6
330
1F
100
AcDbEntity
  8
0
  6
Continuous
 62
     7
370
    25
100
AcDbCircle
 10
70.0241037361
 20
-36.9656378354
 30
0.0
 40
1.000000000000027
100
AcDbArc
 50
240.0
 51
320.597286907
  0
ARC
  5
2E7
330
1F
100
AcDbEntity
  8
0
  6
Continuous
 62
     7
370
    25
100
AcDbCircle
 10
0.0
 20
0.0
 30
0.0
 40
75.90479209017472
100
AcDbArc
 50
331.5089967002
 51
343.4901503662
  0
ARC
  5
2E8
330
1F
100
AcDbEntity
  8
0
  6
Continuous
 62
     7
370
    25
100
AcDbCircle
 10
75.546831528
 20
-23.3485410399
 30
0.0
 40
0.999999999999937
100
AcDbArc
 50
353.4276438718
 51
75.0
  0
ARC
  5
2E9
330
1F
100
AcDbEntity
  8
0
  6
Continuous
 62
     7
370
    25
100
AcDbCircle
 10
77.3478529647
 20
-25.1903952531
 30
0.0
 40
0.9999999999999528
100
AcDbArc
 50
173.4276438718
 51
245.7670282972
  0
ARC
  5
2EA
330
1F
100
AcDbEntity
  8
0
  6
Continuous
 62
     7
370
    25
100
AcDbCircle
 10
102.0330396925
 20
-32.5220714566
 30
0.0
 40
3.000000000000457
100
AcDbArc
 50
254.9999999998
 51
345.0
  0
ARC
  5
2EB
330
1F
100
AcDbEntity
  8
0
  6
Continuous
 62
     7
370
    25
100
AcDbCircle
 10
104.6212301435
 20
-22.8628131937
 30
0.0
 40
2.999999999999538
100
AcDbArc
 50
345.0
 51
74.9999999999
  0
ARC
  5
2EC
330
1F
100
AcDbEntity
  8
0
  6
Continuous
 62
     7
370
    25
100
AcDbCircle
 10
79.7236190502
 20
-16.8729170929
 30
0.0
 40
0.9999999999998369
100
AcDbArc
 50
90.6630904393
 51
155.597286907
  0
ARC
  5
2ED
330
1F
100
AcDbEntity
  8
0
  6
Continuous
 62
     7
370
    25
100
AcDbCircle
 10
77.2055013476
 20
-17.5824926074
 30
0.0
 40
1.000000000000014
100
AcDbArc
 50
255.0
 51
335.597286907
  0
ARC
  5
2EE
330
1F
100
AcDbEntity
  8
0
  6
Continuous
 62
     7
370
    25
100
AcDbCircle
 10
0.0
 20
0.0
 30
0.0
 40
75.90479209018291
100
AcDbArc
 50
346.5089967002
 51
358.4901503662
  0
ARC
  5
2EF
330
1F
100
AcDbEntity
  8
0
  6
Continuous
 62
     7
370
    25
100
AcDbCircle
 10
79.0156827637
 20
-3.0
 30
0.0
 40
1.000000000000043
100
AcDbArc
 50
8.4276438718
 51
90.0
  0
ARC
  5
2F0
330
1F
100
AcDbEntity
  8
0
  6
Continuous
 62
     7
370
    25
100
AcDbCircle
 10
81.2320428318
 20
-4.3129559044
 30
0.0
 40
1.000000000000027
100
AcDbArc
 50
188.4276438718
 51
260.7670282972
  0
ARC
  5
2F1
330
1F
100
AcDbEntity
  8
0
  6
Continuous
 62
     7
370
    25
100
AcDbCircle
 10
106.9736796529
 20
-5.0058148423
 30
0.0
 40
3.000000000000398
100
AcDbArc
 50
269.9999999998
 51
360.0
  0
ARC
  5
2F2
330
1F
100
AcDbEntity
  8
0
  6
Continuous
 62
     7
370
    25
100
AcDbCircle
 10
106.9736796529
 20
4.9941851577
 30
0.0
 40
2.999999999999631
100
AcDbArc
 50
360.0
 51
89.9999999999
  0
ARC
  5
2F3
330
1F
100
AcDbEntity
  8
0
  6
Continuous
 62
     7
370
    25
100
AcDbCircle
 10
81.3741348959
 20
4.3360045698
 30
0.0
 40
0.9999999999999842
100
AcDbArc
 50
105.6630904393
 51
170.597286907
  0
ARC
  5
2F4
330
1F
100
AcDbEntity
  8
0
  6
Continuous
 62
     7
370
    25
100
AcDbCircle
 10
79.1254716304
 20
2.9988704355
 30
0.0
 40
0.9999999999999718
100
AcDbArc
 50
270.0
 51
350.597286907
  0
ARC
  5
2F5
330
1F
100
AcDbEntity
  8
0
  6
Continuous
 62
     7
370
    25
100
AcDbCircle
 10
0.0
 20
0.0
 30
0.0
 40
75.90479209017818
100
AcDbArc
 50
1.5089967002
 51
13.4901503662
  0
ARC
  5
2F6
330
1F
100
AcDbEntity
  8
0
  6
Continuous
 62
     7
370
    25
100
AcDbCircle
 10
77.0997457986
 20
17.5529860822
 30
0.0
 40
0.9999999999999859
100
AcDbArc
 50
23.4276438718
 51
105.0
  0
ARC
  5
2F7
330
1F
100
AcDbEntity
  8
0
  6
Continuous
 62
     7
370
    25
100
AcDbCircle
 10
79.5804032222
 20
16.8584042618
 30
0.0
 40
1.000000000000039
100
AcDbArc
 50
203.4276438718
 51
275.7670282972
  0
ARC
  5
2F8
330
1F
100
AcDbEntity
  8
0
  6
Continuous
 62
     7
370
    25
100
AcDbCircle
 10
104.6242401273
 20
22.8515797811
 30
0.0
 40
3.000000000000398
100
AcDbArc
 50
284.9999999998
 51
15.0
  0
ARC
  5
2F9
330
1F
100
AcDbEntity
  8
0
  6
Continuous
 62
     7
370
    25
100
AcDbCircle
 10
102.0360496763
 20
32.510838044
 30
0.0
 40
2.99999999999968
100
AcDbArc
 50
15.0
 51
104.9999999999
  0
ARC
  5
2FA
330
1F
100
AcDbEntity
  8
0
  6
Continuous
 62
     7
370
    25
100
AcDbCircle
 10
77.4791379256
 20
25.2494346867
 30
0.0
 40
0.9999999999999464
100
AcDbArc
 50
120.6630904393
 51
185.597286907
  0
ARC
  5
2FB
330
1F
100
AcDbEntity
  8
0
  6
Continuous
 62
     7
370
    25
100
AcDbCircle
 10
75.6531717826
 20
23.375865414
 30
0.0
 40
0.9999999999999996
100
AcDbArc
 50
285.0
 51
5.597286907
  0
ARC
  5
2FC
330
1F
100
AcDbEntity
  8
0
  6
Continuous
 62
     7
370
    25
100
AcDbCircle
 10
0.0
 20
0.0
 30
0.0
 40
75.9047920901803
100
AcDbArc
 50
16.5089967002
 51
28.4901503662
  0
ARC
  5
2FD
330
1F
100
AcDbEntity
  8
0
  6
Continuous
 62
     7
370
    25
100
AcDbCircle
 10
69.9295885707
 20
36.9097651705
 30
0.0
 40
1.000000000000035
100
AcDbArc
 50
38.4276438718
 51
120.0
  0
ARC
  5
2FE
330
1F
100
AcDbEntity
  8
0
  6
Continuous
 62
     7
370
    25
100
AcDbCircle
 10
72.5054906458
 20
36.8808920373
 30
0.0
 40
1.000000000000035
100
AcDbArc
 50
218.4276438718
 51
290.7670282972
  0
ARC
  5
2FF
330
1F
100
AcDbEntity
  8
0
  6
Continuous
 62
     7
370
    25
100
AcDbCircle
 10
95.1448315368
 20
49.1516770064
 30
0.0
 40
3.000000000000289
100
AcDbArc
 50
299.9999999998
 51
30.0
  0
ARC
  5
300
330
1F
100
AcDbEntity
  8
0
  6
Continuous
 62
     7
370
    25
100
AcDbCircle
 10
90.1448315368
 20
57.8119310443
 30
0.0
 40
2.999999999999731
100
AcDbArc
 50
30.0
 51
119.9999999999
  0
ARC
  5
301
330
1F
100
AcDbEntity
  8
0
  6
Continuous
 62
     7
370
    25
100
AcDbCircle
 10
68.304065746
 20
44.4421575563
 30
0.0
 40
0.9999999999999518
100
AcDbArc
 50
135.6630904393
 51
200.597286907
  0
ARC
  5
302
330
1F
100
AcDbEntity
  8
0
  6
Continuous
 62
     7
370
    25
100
AcDbCircle
 10
67.0252333006
 20
42.159833795
 30
0.0
 40
0.9999999999999576
100
AcDbArc
 50
300.0
 51
20.597286907
  0
ARC
  5
303
330
1F
100
AcDbEntity
  8
0
  6
Continuous
 62
     7
370
    25
100
AcDbCircle
 10
0.0
 20
0.0
 30
0.0
 40
75.90479209017974
100
AcDbArc
 50
31.5089967002
 51
43.4901503662
  0
ARC
  5
304
330
1F
100
AcDbEntity
  8
0
  6
Continuous
 62
     7
370
    25
100
AcDbCircle
 10
57.9938454458
 20
53.7512047587
 30
0.0
 40
0.9999999999999829
100
AcDbArc
 50
53.4276438718
 51
135.0
  0
ARC
  5
305
330
1F
100
AcDbEntity
  8
0
  6
Continuous
 62
     7
370
    25
100
AcDbCircle
 10
60.4894487029
 20
54.390007969
 30
0.0
 40
1.000000000000002
100
AcDbArc
 50
233.4276438718
 51
305.7670282972
  0
ARC
  5
306
330
1F
100
AcDbEntity
  8
0
  6
Continuous
 62
     7
370
    25
100
AcDbCircle
 10
79.1814599114
 20
72.1021686707
 30
0.0
 40
3.000000000000175
100
AcDbArc
 50
314.9999999998
 51
45.0
  0
ARC
  5
307
330
1F
100
AcDbEntity
  8
0
  6
Continuous
 62
     7
370
    25
100
AcDbCircle
 10
72.1103920995
 20
79.1732364826
 30
0.0
 40
2.999999999999823
100
AcDbArc
 50
45.0
 51
134.9999999999
  0
ARC
  5
308
330
1F
100
AcDbEntity
  8
0
  6
Continuous
 62
     7
370
    25
100
AcDbCircle
 10
54.4741843635
 20
60.6062208326
 30
0.0
 40
0.9999999999998964
100
AcDbArc
 50
150.6630904393
 51
215.597286907
  0
ARC
  5
309
330
1F
100
AcDbEntity
  8
0
  6
Continuous
 62
     7
370
    25
100
AcDbCircle
 10
53.8296359336
 20
58.0706791752
 30
0.0
 40
1.000000000000033
100
AcDbArc
 50
315.0
 51
35.597286907
  0
ARC
  5
30A
330
1F
100
AcDbEntity
  8
0
  6
Continuous
 62
     7
370
    25
100
AcDbCircle
 10
0.0
 20
0.0
 30
0.0
 40
75.90479209017786
100
AcDbArc
 50
46.5089967002
 51
58.4901503662
  0
ARC
  5
30B
330
1F
100
AcDbEntity
  8
0
  6
Continuous
 62
     7
370
    25
100
AcDbCircle
 10
42.1059175932
 20
66.9295885707
 30
0.0
 40
1.000000000000018
100
AcDbArc
 50
68.4276438718
 51
150.0
  0
ARC
  5
30C
330
1F
100
AcDbEntity
  8
0
  6
Continuous
 62
     7
370
    25
100
AcDbCircle
 10
44.3511507945
 20
68.1925347414
 30
0.0
 40
0.9999999999999463
100
AcDbArc
 50
248.4276438718
 51
320.7670282972
  0
ARC
  5
30D
330
1F
100
AcDbEntity
  8
0
  6
Continuous
 62
     7
370
    25
100
AcDbCircle
 10
57.8220026465
 20
90.1390166946
 30
0.0
 40
3.00000000000014
100
AcDbArc
 50
329.9999999998
 51
60.0
  0
ARC
  5
30E
330
1F
100
AcDbEntity
  8
0
  6
Continuous
 62
     7
370
    25
100
AcDbCircle
 10
49.1617486086
 20
95.1390166946
 30
0.0
 40
2.999999999999851
100
AcDbArc
 50
60.0
 51
149.9999999999
  0
ARC
  5
30F
330
1F
100
AcDbEntity
  8
0
  6
Continuous
 62
     7
370
    25
100
AcDbCircle
 10
36.9319773396
 20
72.6400703157
 30
0.0
 40
0.9999999999999497
100
AcDbArc
 50
165.6630904393
 51
230.597286907
  0
ARC
  5
310
330
1F
100
AcDbEntity
  8
0
  6
Continuous
 62
     7
370
    25
100
AcDbCircle
 10
36.9656378354
 20
70.0241037361
 30
0.0
 40
0.9999999999999827
100
AcDbArc
 50
330.0
 51
50.597286907
  0
ARC
  5
311
330
1F
100
AcDbEntity
  8
0
  6
Continuous
 62
     7
370
    25
100
AcDbCircle
 10
0.0
 20
0.0
 30
0.0
 40
75.90479209017653
100
AcDbArc
 50
61.5089967002
 51
73.4901503662
  0
ARC
  5
312
330
1F
100
AcDbEntity
  8
0
  6
Continuous
 62
     7
370
    25
100
AcDbCircle
 10
23.3485410399
 20
75.546831528
 30
0.0
 40
0.9999999999999737
100
AcDbArc
 50
83.4276438718
 51
165.0
  0
ARC
  5
313
330
1F
100
AcDbEntity
  8
0
  6
Continuous
 62
     7
370
    25
100
AcDbCircle
 10
25.1903952531
 20
77.3478529647
 30
0.0
 40
1.000000000000054
100
AcDbArc
 50
263.4276438718
 51
335.7670282972
  0
ARC
  5
314
330
1F
100
AcDbEntity
  8
0
  6
Continuous
 62
     7
370
    25
100
AcDbCircle
 10
32.5220714566
 20
102.0330396925
 30
0.0
 40
3.000000000000084
100
AcDbArc
 50
344.9999999998
 51
75.0
  0
ARC
  5
315
330
1F
100
AcDbEntity
  8
0
  6
Continuous
 62
     7
370
    25
100
AcDbCircle
 10
22.8628131937
 20
104.6212301435
 30
0.0
 40
2.999999999999945
100
AcDbArc
 50
75.0
 51
164.9999999999
  0
ARC
  5
316
330
1F
100
AcDbEntity
  8
0
  6
Continuous
 62
     7
370
    25
100
AcDbCircle
 10
16.8729170929
 20
79.7236190502
 30
0.0
 40
0.9999999999999275
100
AcDbArc
 50
180.6630904393
 51
245.597286907
  0
ARC
  5
317
330
1F
100
AcDbEntity
  8
0
  6
Continuous
 62
     7
370
    25
100
AcDbCircle
 10
17.5824926074
 20
77.2055013476
 30
0.0
 40
1.000000000000023
100
AcDbArc
 50
345.0
 51
65.597286907
  0
ARC
  5
318
330
1F
100
AcDbEntity
  8
0
  6
Continuous
 62
     7
370
    25
100
AcDbCircle
 10
0.0
 20
0.0
 30
0.0
 40
75.9047920901818
100
AcDbArc
 50
76.5089967002
 51
88.4901503662
  0
ARC
  5
319
330
1F
100
AcDbEntity
  8
0
  6
Continuous
 62
     7
370
    25
100
AcDbCircle
 10
3.0
 20
79.0156827637
 30
0.0
 40
1.00000000000001
100
AcDbArc
 50
98.4276438718
 51
180.0
  0
ARC
  5
31A
330
1F
100
AcDbEntity
  8
0
  6
Continuous
 62
     7
370
    25
100
AcDbCircle
 10
4.3129559044
 20
81.2320428318
 30
0.0
 40
1.00000000000001
100
AcDbArc
 50
278.4276438718
 51
350.7670282972
  0
ARC
  5
31B
330
1F
100
AcDbEntity
  8
0
  6
Continuous
 62
     7
370
    25
100
AcDbCircle
 10
5.0058148423
 20
106.9736796529
 30
0.0
 40
2.999999999999991
100
AcDbArc
 50
359.9999999998
 51
90.0
  0
ARC
  5
31C
330
1F
100
AcDbEntity
  8
0
  6
Continuous
 62
     7
370
    25
100
AcDbCircle
 10
-4.9941851577
 20
106.9736796529
 30
0.0
 40
3.000000000000006
100
AcDbArc
 50
90.0
 51
179.9999999999
  0
ARC
  5
31D
330
1F
100
AcDbEntity
  8
0
  6
Continuous
 62
     7
370
    25
100
AcDbCircle
 10
-4.3360045698
 20
81.3741348959
 30
0.0
 40
0.9999999999999399
100
AcDbArc
 50
195.6630904393
 51
260.597286907
  0
ARC
  5
31E
330
1F
100
AcDbEntity
  8
0
  6
Continuous
 62
     7
370
    25
100
AcDbCircle
 10
-2.9988704355
 20
79.1254716304
 30
0.0
 40
1.000000000000759
100
AcDbArc
 50
0.0
 51
80.597286907
  0
ARC
  5
31F
330
1F
100
AcDbEntity
  8
0
  6
Continuous
 62
     7
370
    25
100
AcDbCircle
 10
0.0
 20
0.0
 30
0.0
 40
75.90479209017549
100
AcDbArc
 50
91.5089967002
 51
103.4901503662
  0
ARC
  5
320
330
1F
100
AcDbEntity
  8
0
  6
Continuous
 62
     7
370
    25
100
AcDbCircle
 10
-17.5529860822
 20
77.0997457986
 30
0.0
 40
1.000000000000041
100
AcDbArc
 50
113.4276438718
 51
195.0
  0
ARC
  5
321
330
1F
100
AcDbEntity
  8
0
  6
Continuous
 62
     7
370
    25
100
AcDbCircle
 10
-16.8584042618
 20
79.5804032222
 30
0.0
 40
1.000000000000062
100
AcDbArc
 50
293.4276438718
 51
5.7670282972
  0
ARC
  5
322
330
1F
100
AcDbEntity
  8
0
  6
Continuous
 62
     7
370
    25
100
AcDbCircle
 10
-22.8515797811
 20
104.6242401273
 30
0.0
 40
3.000000000001528
100
AcDbArc
 50
14.9999999998
 51
104.9999999999
  0
ARC
  5
323
330
1F
100
AcDbEntity
  8
0
  6
Continuous
 62
     7
370
    25
100
AcDbCircle
 10
-32.510838044
 20
102.0360496763
 30
0.0
 40
2.999999999998554
100
AcDbArc
 50
104.9999999999
 51
194.9999999999
  0
ARC
  5
324
330
1F
100
AcDbEntity
  8
0
  6
Continuous
 62
     7
370
    25
100
AcDbCircle
 10
-25.2494346867
 20
77.4791379256
 30
0.0
 40
1.000000000000026
100
AcDbArc
 50
210.6630904393
 51
275.597286907
  0
ARC
  5
325
330
1F
100
AcDbEntity
  8
0
  6
Continuous
 62
     7
370
    25
100
AcDbCircle
 10
-23.375865414
 20
75.6531717826
 30
0.0
 40
0.9999999999999474
100
AcDbArc
 50
15.0
 51
95.597286907
  0
ARC
  5
326
330
1F
100
AcDbEntity
  8
0
  6
Continuous
 62
     7
370
    25
100
AcDbCircle
 10
0.0
 20
0.0
 30
0.0
 40
75.9047920901782
100
AcDbArc
 50
106.5089967002
 51
118.4901503662
  0
ARC
  5
327
330
1F
100
AcDbEntity
  8
0
  6
Continuous
 62
     7
370
    25
100
AcDbCircle
 10
-36.9097651705
 20
69.9295885707
 30
0.0
 40
1.00000000000002
100
AcDbArc
 50
128.4276438718
 51
210.0
  0
ARC
  5
328
330
1F
100
AcDbEntity
  8
0
  6
Continuous
 62
     7
370
    25
100
AcDbCircle
 10
-36.8808920373
 20
72.5054906458
 30
0.0
 40
1.000000000000042
100
AcDbArc
 50
308.4276438718
 51
20.7670282972
  0
ARC
  5
329
330
1F
100
AcDbEntity
  8
0
  6
Continuous
 62
     7
370
    25
100
AcDbCircle
 10
-49.1516770064
 20
95.1448315368
 30
0.0
 40
3.000000000001448
100
AcDbArc
 50
29.9999999998
 51
119.9999999999
  0
ARC
  5
32A
330
1F
100
AcDbEntity
  8
0
  6
Continuous
 62
     7
370
    25
100
AcDbCircle
 10
-57.8119310443
 20
90.1448315368
 30
0.0
 40
2.999999999998609
100
AcDbArc
 50
119.9999999999
 51
209.9999999999
  0
ARC
  5
32B
330
1F
100
AcDbEntity
  8
0
  6
Continuous
 62
     7
370
    25
100
AcDbCircle
 10
-44.4421575563
 20
68.304065746
 30
0.0
 40
0.999999999999995
100
AcDbArc
 50
225.6630904393
 51
290.597286907
  0
ARC
  5
32C
330
1F
100
AcDbEntity
  8
0
  6
Continuous
 62
     7
370
    25
100
AcDbCircle
 10
-42.159833795
 20
67.0252333006
 30
0.0
 40
0.9999999999999468
100
AcDbArc
 50
30.0
 51
110.597286907
  0
ARC
  5
32D
330
1F
100
AcDbEntity
  8
0
  6
Continuous
 62
     7
370
    25
100
AcDbCircle
 10
0.0
 20
0.0
 30
0.0
 40
75.90479209018102
100
AcDbArc
 50
121.5089967002
 51
133.4901503662
  0
ARC
  5
32E
330
1F
100
AcDbEntity
  8
0
  6
Continuous
 62
     7
370
    25
100
AcDbCircle
 10
-53.7512047587
 20
57.9938454458
 30
0.0
 40
1.000000000000033
100
AcDbArc
 50
143.4276438718
 51
225.0
  0
ARC
  5
32F
330
1F
100
AcDbEntity
  8
0
  6
Continuous
 62
     7
370
    25
100
AcDbCircle
 10
-54.390007969
 20
60.4894487029
 30
0.0
 40
0.9999999999999749
100
AcDbArc
 50
323.4276438718
 51
35.7670282972
  0
ARC
  5
330
330
1F
100
AcDbEntity
  8
0
  6
Continuous
 62
     7
370
    25
100
AcDbCircle
 10
-72.1021686707
 20
79.1814599114
 30
0.0
 40
3.0000000000013
100
AcDbArc
 50
44.9999999998
 51
134.9999999999
  0
ARC
  5
331
330
1F
100
AcDbEntity
  8
0
  6
Continuous
 62
     7
370
    25
100
AcDbCircle
 10
-79.1732364826
 20
72.1103920995
 30
0.0
 40
2.999999999998738
100
AcDbArc
 50
135.0
 51
224.9999999999
  0
ARC
  5
332
330
1F
100
AcDbEntity
  8
0
  6
Continuous
 62
     7
370
    25
100
AcDbCircle
 10
-60.6062208326
 20
54.4741843635
 30
0.0
 40
0.9999999999999173
100
AcDbArc
 50
240.6630904393
 51
305.597286907
  0
ARC
  5
333
330
1F
100
AcDbEntity
  8
0
  6
Continuous
 62
     7
370
    25
100
AcDbCircle
 10
-58.0706791752
 20
53.8296359336
 30
0.0
 40
1.000000000000018
100
AcDbArc
 50
45.0
 51
125.597286907
  0
ARC
  5
334
330
1F
100
AcDbEntity
  8
0
  6
Continuous
 62
     7
370
    25
100
AcDbCircle
 10
0.0
 20
0.0
 30
0.0
 40
75.90479209017722
100
AcDbArc
 50
136.5089967002
 51
148.4901503662
  0
ARC
  5
335
330
1F
100
AcDbEntity
  8
0
  6
Continuous
 62
     7
370
    25
100
AcDbCircle
 10
-66.9295885707
 20
42.1059175932
 30
0.0
 40
1.000000000000047
100
AcDbArc
 50
158.4276438718
 51
240.0
  0
ARC
  5
336
330
1F
100
AcDbEntity
  8
0
  6
Continuous
 62
     7
370
    25
100
AcDbCircle
 10
-68.1925347414
 20
44.3511507945
 30
0.0
 40
0.9999999999999966
100
AcDbArc
 50
338.4276438718
 51
50.7670282972
  0
ARC
  5
337
330
1F
100
AcDbEntity
  8
0
  6
Continuous
 62
     7
370
    25
100
AcDbCircle
 10
-90.1390166946
 20
57.8220026465
 30
0.0
 40
3.000000000001311
100
AcDbArc
 50
59.9999999998
 51
149.9999999999
  0
ARC
  5
338
330
1F
100
AcDbEntity
  8
0
  6
Continuous
 62
     7
370
    25
100
AcDbCircle
 10
-95.1390166946
 20
49.1617486086
 30
0.0
 40
2.999999999998651
100
AcDbArc
 50
149.9999999999
 51
239.9999999999
  0
ARC
  5
339
330
1F
100
AcDbEntity
  8
0
  6
Continuous
 62
     7
370
    25
100
AcDbCircle
 10
-72.6400703157
 20
36.9319773396
 30
0.0
 40
0.9999999999999235
100
AcDbArc
 50
255.6630904393
 51
320.597286907
  0
ARC
  5
33A
330
1F
100
AcDbEntity
  8
0
  6
Continuous
 62
     7
370
    25
100
AcDbCircle
 10
-70.0241037361
 20
36.9656378354
 30
0.0
 40
1.000000000000008
100
AcDbArc
 50
60.0
 51
140.597286907
  0
ARC
  5
33B
330
1F
100
AcDbEntity
  8
0
  6
Continuous
 62
     7
370
    25
100
AcDbCircle
 10
0.0
 20
0.0
 30
0.0
 40
75.90479209017937
100
AcDbArc
 50
151.5089967002
 51
163.4901503662
  0
ARC
  5
33C
330
1F
100
AcDbEntity
  8
0
  6
Continuous
 62
     7
370
    25
100
AcDbCircle
 10
-0.0000000015
 20
-0.0000000005
 30
0.0
 40
67.49999999999623
100
AcDbArc
 50
161.1727947041
 51
198.6715123003
  0
ARC
  5
33D
330
1F
100
AcDbEntity
  8
0
  6
Continuous
 62
     7
370
    25
100
AcDbCircle
 10
-0.0000000015
 20
-0.0000000005
 30
0.0
 40
67.49999999999608
100
AcDbArc
 50
116.1727947041
 51
153.6715123003
  0
ARC
  5
33E
330
1F
100
AcDbEntity
  8
0
  6
Continuous
 62
     7
370
    25
100
AcDbCircle
 10
-0.0000000015
 20
-0.0000000005
 30
0.0
 40
67.4999999999962
100
AcDbArc
 50
251.1727947041
 51
288.6715123003
  0
ARC
  5
33F
330
1F
100
AcDbEntity
  8
0
  6
Continuous
 62
     7
370
    25
100
AcDbCircle
 10
-0.0000000015
 20
-0.0000000005
 30
0.0
 40
67.49999999999612
100
AcDbArc
 50
296.1727947041
 51
333.6715123003
  0
ARC
  5
340
330
1F
100
AcDbEntity
  8
0
  6
Continuous
 62
     7
370
    25
100
AcDbCircle
 10
-0.0000000015
 20
-0.0000000005
 30
0.0
 40
67.49999999999633
100
AcDbArc
 50
341.1727947041
 51
18.6715123003
  0
ARC
  5
341
330
1F
100
AcDbEntity
  8
0
  6
Continuous
 62
     7
370
    25
100
AcDbCircle
 10
-0.0000000015
 20
-0.0000000005
 30
0.0
 40
67.49999999999616
100
AcDbArc
 50
26.1727947041
 51
63.6715123003
  0
ARC
  5
342
330
1F
100
AcDbEntity
  8
0
  6
Continuous
 62
     7
370
    25
100
AcDbCircle
 10
-0.0000000015
 20
-0.0000000005
 30
0.0
 40
67.49999999999622
100
AcDbArc
 50
71.1727947041
 51
108.6715123003
  0
ARC
  5
343
330
1F
100
AcDbEntity
  8
0
  6
Continuous
 62
     7
370
    25
100
AcDbCircle
 10
-30.8755835539
 20
62.822753364
 30
0.0
 40
2.500000000000012
100
AcDbArc
 50
296.1727947041
 51
116.1727947041
  0
ARC
  5
344
330
1F
100
AcDbEntity
  8
0
  6
Continuous
 62
     7
370
    25
100
AcDbCircle
 10
-0.0000000015
 20
-0.0000000005
 30
0.0
 40
72.49999999999544
100
AcDbArc
 50
116.1727947041
 51
153.6715123003
  0
ARC
  5
345
330
1F
100
AcDbEntity
  8
0
  6
Continuous
 62
     7
370
    25
100
AcDbCircle
 10
-62.7386215935
 20
31.0461810968
 30
0.0
 40
2.500000000000004
100
AcDbArc
 50
153.6715123003
 51
333.6715123003
  0
ARC
  5
346
330
1F
100
AcDbEntity
  8
0
  6
Continuous
 62
     7
370
    25
100
AcDbCircle
 10
-66.2547294213
 20
22.5900604133
 30
0.0
 40
2.499999999999987
100
AcDbArc
 50
341.1727947041
 51
161.1727947041
  0
ARC
  5
347
330
1F
100
AcDbEntity
  8
0
  6
Continuous
 62
     7
370
    25
100
AcDbCircle
 10
-0.0000000015
 20
-0.0000000005
 30
0.0
 40
67.4999999999962
100
AcDbArc
 50
206.1727947041
 51
243.6715123003
  0
ARC
  5
348
330
1F
100
AcDbEntity
  8
0
  6
Continuous
 62
     7
370
    25
100
AcDbCircle
 10
-66.3158699554
 20
-22.4099395867
 30
0.0
 40
2.499999999999988
100
AcDbArc
 50
198.6715123003
 51
18.6715123003
  0
ARC
  5
349
330
1F
100
AcDbEntity
  8
0
  6
Continuous
 62
     7
370
    25
100
AcDbCircle
 10
-62.822753366
 20
-30.8755835529
 30
0.0
 40
2.500000000000009
100
AcDbArc
 50
26.1727947041
 51
206.1727947041
  0
ARC
  5
34A
330
1F
100
AcDbEntity
  8
0
  6
Continuous
 62
     7
370
    25
100
AcDbCircle
 10
-0.0000000015
 20
-0.0000000005
 30
0.0
 40
72.49999999999554
100
AcDbArc
 50
206.1727947041
 51
243.6715123003
  0
ARC
  5
34B
330
1F
100
AcDbEntity
  8
0
  6
Continuous
 62
     7
370
    25
100
AcDbCircle
 10
-31.0461810988
 20
-62.7386215926
 30
0.0
 40
2.500000000000017
100
AcDbArc
 50
243.6715123003
 51
63.6715123003
  0
ARC
  5
34C
330
1F
100
AcDbEntity
  8
0
  6
Continuous
 62
     7
370
    25
100
AcDbCircle
 10
-22.5900604153
 20
-66.2547294204
 30
0.0
 40
2.499999999999988
100
AcDbArc
 50
71.1727947041
 51
251.1727947041
  0
ARC
  5
34D
330
1F
100
AcDbEntity
  8
0
  6
Continuous
 62
     7
370
    25
100
AcDbCircle
 10
-0.0000000015
 20
-0.0000000005
 30
0.0
 40
72.49999999999534
100
AcDbArc
 50
251.1727947041
 51
288.6715123003
  0
ARC
  5
34E
330
1F
100
AcDbEntity
  8
0
  6
Continuous
 62
     7
370
    25
100
AcDbCircle
 10
22.4099395847
 20
-66.3158699544
 30
0.0
 40
2.499999999999985
100
AcDbArc
 50
288.6715123003
 51
108.6715123003
  0
ARC
  5
34F
330
1F
100
AcDbEntity
  8
0
  6
Continuous
 62
     7
370
    25
100
AcDbCircle
 10
30.875583551
 20
-62.822753365
 30
0.0
 40
2.500000000000016
100
AcDbArc
 50
116.1727947041
 51
296.1727947041
  0
ARC
  5
350
330
1F
100
AcDbEntity
  8
0
  6
Continuous
 62
     7
370
    25
100
AcDbCircle
 10
-0.0000000015
 20
-0.0000000005
 30
0.0
 40
72.49999999999552
100
AcDbArc
 50
296.1727947041
 51
333.6715123003
  0
ARC
  5
351
330
1F
100
AcDbEntity
  8
0
  6
Continuous
 62
     7
370
    25
100
AcDbCircle
 10
62.7386215906
 20
-31.0461810978
 30
0.0
 40
2.500000000000001
100
AcDbArc
 50
333.6715123003
 51
153.6715123003
  0
ARC
  5
352
330
1F
100
AcDbEntity
  8
0
  6
Continuous
 62
     7
370
    25
100
AcDbCircle
 10
66.2547294184
 20
-22.5900604143
 30
0.0
 40
2.499999999999993
100
AcDbArc
 50
161.1727947041
 51
341.1727947041
  0
ARC
  5
353
330
1F
100
AcDbEntity
  8
0
  6
Continuous
 62
     7
370
    25
100
AcDbCircle
 10
-0.0000000015
 20
-0.0000000005
 30
0.0
 40
72.49999999999532
100
AcDbArc
 50
341.1727947041
 51
18.6715123003
  0
ARC
  5
354
330
1F
100
AcDbEntity
  8
0
  6
Continuous
 62
     7
370
    25
100
AcDbCircle
 10
66.3158699524
 20
22.4099395857
 30
0.0
 40
2.500000000000015
100
AcDbArc
 50
18.6715123003
 51
198.6715123003
  0
ARC
  5
355
330
1F
100
AcDbEntity
  8
0
  6
Continuous
 62
     7
370
    25
100
AcDbCircle
 10
62.822753363
 20
30.875583552
 30
0.0
 40
2.500000000000012
100
AcDbArc
 50
206.1727947041
 51
26.1727947041
  0
ARC
  5
356
330
1F
100
AcDbEntity
  8
0
  6
Continuous
 62
     7
370
    25
100
AcDbCircle
 10
-0.0000000015
 20
-0.0000000005
 30
0.0
 40
72.49999999999503
100
AcDbArc
 50
26.1727947041
 51
63.6715123003
  0
ARC
  5
357
330
1F
100
AcDbEntity
  8
0
  6
Continuous
 62
     7
370
    25
100
AcDbCircle
 10
31.0461810958
 20
62.7386215916
 30
0.0
 40
2.500000000000008
100
AcDbArc
 50
63.6715123003
 51
243.6715123003
  0
ARC
  5
358
330
1F
100
AcDbEntity
  8
0
  6
Continuous
 62
     7
370
    25
100
AcDbCircle
 10
22.5900604123
 20
66.2547294194
 30
0.0
 40
2.50000000000001
100
AcDbArc
 50
251.1727947041
 51
71.1727947041
  0
ARC
  5
359
330
1F
100
AcDbEntity
  8
0
  6
Continuous
 62
     7
370
    25
100
AcDbCircle
 10
-0.0000000015
 20
-0.0000000005
 30
0.0
 40
72.49999999999527
100
AcDbArc
 50
71.1727947041
 51
108.6715123003
  0
ARC
  5
35A
330
1F
100
AcDbEntity
  8
0
  6
Continuous
 62
     7
370
    25
100
AcDbCircle
 10
-22.4099395877
 20
66.3158699534
 30
0.0
 40
2.5
100
AcDbArc
 50
108.6715123003
 51
288.6715123003
  0
ARC
  5
35B
330
1F
100
AcDbEntity
  8
0
  6
Continuous
 62
     7
370
    25
100
AcDbCircle
 10
0.0
 20
0.0
 30
0.0
 40
17.50000000000002
100
AcDbArc
 50
110.0510425665
 51
69.9489574335
  0
ARC
  5
35C
330
1F
100
AcDbEntity
  8
0
  6
Continuous
 62
     7
370
    25
100
AcDbCircle
 10
-0.0000000015
 20
-0.0000000005
 30
0.0
 40
72.4999999999954
100
AcDbArc
 50
161.1727947041
 51
198.6715123003
  0
ENDSEC
  0
SECTION
  2
OBJECTS
  0
DICTIONARY
  5
C
330
0
100
AcDbDictionary
281
     1
  3
ACAD_GROUP
350
D
  3
ACAD_LAYOUT
350
1A
  3
ACAD_MLINESTYLE
350
17
  3
ACAD_PLOTSETTINGS
350
19
  3
ACAD_PLOTSTYLENAME
350
E
  3
ACAD_SCALELIST
350
47
  3
DWGPROPS
350
35D
  0
DICTIONARY
  5
D
102
{ACAD_REACTORS
330
C
102
}
330
C
100
AcDbDictionary
281
     1
  0
DICTIONARY
  5
1A
102
{ACAD_REACTORS
330
C
102
}
330
C
100
AcDbDictionary
281
     1
  3
Layout1
350
1E
  3
Layout2
350
26
  3
Model
350
22
  0
DICTIONARY
  5
17
102
{ACAD_REACTORS
330
C
102
}
330
C
100
AcDbDictionary
281
     1
  3
Standard
350
18
  0
DICTIONARY
  5
19
102
{ACAD_REACTORS
330
C
102
}
330
C
100
AcDbDictionary
281
     1
  0
ACDBDICTIONARYWDFLT
  5
E
102
{ACAD_REACTORS
330
C
102
}
330
C
100
AcDbDictionary
281
     1
  3
Normal
350
F
100
AcDbDictionaryWithDefault
340
F
  0
DICTIONARY
  5
47
102
{ACAD_REACTORS
330
C
102
}
330
C
100
AcDbDictionary
281
     1
  3
A0
350
48
  3
A1
350
49
  3
A2
350
4A
  3
A3
350
4B
  3
A4
350
4C
  3
A5
350
4D
  3
A6
350
4E
  3
A7
350
4F
  3
A8
350
50
  3
A9
350
51
  3
B0
350
52
  3
B1
350
53
  3
B2
350
54
  3
B3
350
55
  3
B4
350
56
  3
B5
350
57
  3
B6
350
58
  3
B7
350
59
  3
B8
350
5A
  3
B9
350
5B
  3
C0
350
5C
  3
C1
350
5D
  3
C2
350
5E
  3
C3
350
5F
  3
C4
350
60
  3
C5
350
61
  3
C6
350
62
  3
C7
350
63
  3
C8
350
64
  3
C9
350
65
  3
D0
350
66
  3
D1
350
67
  3
D2
350
68
  0
XRECORD
  5
35D
102
{ACAD_REACTORS
330
C
102
}
330
C
100
AcDbXrecord
280
     1
  1
DWGPROPS COOKIE
  2

  3

  4

  6

  7

  8
mac
  9

300
=
301
=
302
=
303
=
304
=
305
=
306
=
307
=
308
=
309
=
 40
0.0
 41
2460322.788125729
 42
2460322.78816353
  1

 90
        0
  0
LAYOUT
  5
1E
102
{ACAD_REACTORS
330
1A
102
}
330
1A
100
AcDbPlotSettings
  1

  2
none_device
  4

  6

 40
0.0
 41
0.0
 42
0.0
 43
0.0
 44
0.0
 45
0.0
 46
0.0
 47
0.0
 48
0.0
 49
0.0
140
0.0
141
0.0
142
1.0
143
1.0
 70
   688
 72
     1
 73
     0
 74
     5
  7

 75
    16
147
1.0
148
0.0
149
0.0
100
AcDbLayout
  1
Layout1
 70
     1
 71
     1
 10
0.0
 20
0.0
 11
420.0
 21
297.0
 12
0.0
 22
0.0
 32
0.0
 14
1.0000000000E+20
 24
1.0000000000E+20
 34
1.0000000000E+20
 15
-1.0000000000E+20
 25
-1.0000000000E+20
 35
-1.0000000000E+20
146
0.0
 13
0.0
 23
0.0
 33
0.0
 16
1.0
 26
0.0
 36
0.0
 17
0.0
 27
1.0
 37
0.0
 76
     0
330
1B
  0
LAYOUT
  5
26
102
{ACAD_REACTORS
330
1A
102
}
330
1A
100
AcDbPlotSettings
  1

  2
none_device
  4

  6

 40
0.0
 41
0.0
 42
0.0
 43
0.0
 44
0.0
 45
0.0
 46
0.0
 47
0.0
 48
0.0
 49
0.0
140
0.0
141
0.0
142
1.0
143
1.0
 70
   688
 72
     1
 73
     0
 74
     5
  7

 75
    16
147
1.0
148
0.0
149
0.0
100
AcDbLayout
  1
Layout2
 70
     1
 71
     2
 10
0.0
 20
0.0
 11
0.0
 21
0.0
 12
0.0
 22
0.0
 32
0.0
 14
0.0
 24
0.0
 34
0.0
 15
0.0
 25
0.0
 35
0.0
146
0.0
 13
0.0
 23
0.0
 33
0.0
 16
1.0
 26
0.0
 36
0.0
 17
0.0
 27
1.0
 37
0.0
 76
     0
330
23
  0
LAYOUT
  5
22
102
{ACAD_REACTORS
330
1A
102
}
330
1A
100
AcDbPlotSettings
  1

  2
none_device
  4
ANSI_A_(11.00_x_8.50_Inches)
  6

 40
6.35
 41
19.05
 42
6.35000508
 43
19.05000254
 44
279.4
 45
215.9
 46
133.34999746
 47
88.89999873
 48
0.0
 49
0.0
140
0.0
141
0.0
142
0.03366
143
1.0
 70
  1696
 72
     0
 73
     0
 74
     0
  7

 75
     0
147
0.0179189148
148
-1300.4909072572
149
0.0
100
AcDbLayout
  1
Model
 70
     1
 71
     0
 10
0.0
 20
0.0
 11
420.0
 21
297.0
 12
0.0
 22
0.0
 32
0.0
 14
-125.0
 24
-125.0
 34
0.0
 15
125.0
 25
125.0
 35
0.0
146
0.0
 13
0.0
 23
0.0
 33
0.0
 16
1.0
 26
0.0
 36
0.0
 17
0.0
 27
1.0
 37
0.0
 76
     0
330
1F
331
29
  0
MLINESTYLE
  5
18
102
{ACAD_REACTORS
330
17
102
}
330
17
100
AcDbMlineStyle
  2
Standard
 70
     0
  3

 62
   256
 51
90.0
 52
90.0
 71
     2
 49
0.5
 62
   256
  6
BYLAYER
 49
-0.5
 62
   256
  6
BYLAYER
  0
ACDBPLACEHOLDER
  5
F
102
{ACAD_REACTORS
330
E
102
}
330
E
  0
SCALE
  5
48
102
{ACAD_REACTORS
330
47
102
}
330
47
100
AcDbScale
 70
     0
300
1:1
140
1.0
141
1.0
290
     1
  0
SCALE
  5
49
102
{ACAD_REACTORS
330
47
102
}
330
47
100
AcDbScale
 70
     0
300
1:2
140
1.0
141
2.0
290
     0
  0
SCALE
  5
4A
102
{ACAD_REACTORS
330
47
102
}
330
47
100
AcDbScale
 70
     0
300
1:4
140
1.0
141
4.0
290
     0
  0
SCALE
  5
4B
102
{ACAD_REACTORS
330
47
102
}
330
47
100
AcDbScale
 70
     0
300
1:5
140
1.0
141
5.0
290
     0
  0
SCALE
  5
4C
102
{ACAD_REACTORS
330
47
102
}
330
47
100
AcDbScale
 70
     0
300
1:8
140
1.0
141
8.0
290
     0
  0
SCALE
  5
4D
102
{ACAD_REACTORS
330
47
102
}
330
47
100
AcDbScale
 70
     0
300
1:10
140
1.0
141
10.0
290
     0
  0
SCALE
  5
4E
102
{ACAD_REACTORS
330
47
102
}
330
47
100
AcDbScale
 70
     0
300
1:16
140
1.0
141
16.0
290
     0
  0
SCALE
  5
4F
102
{ACAD_REACTORS
330
47
102
}
330
47
100
AcDbScale
 70
     0
300
1:20
140
1.0
141
20.0
290
     0
  0
SCALE
  5
50
102
{ACAD_REACTORS
330
47
102
}
330
47
100
AcDbScale
 70
     0
300
1:30
140
1.0
141
30.0
290
     0
  0
SCALE
  5
51
102
{ACAD_REACTORS
330
47
102
}
330
47
100
AcDbScale
 70
     0
300
1:40
140
1.0
141
40.0
290
     0
  0
SCALE
  5
52
102
{ACAD_REACTORS
330
47
102
}
330
47
100
AcDbScale
 70
     0
300
1:50
140
1.0
141
50.0
290
     0
  0
SCALE
  5
53
102
{ACAD_REACTORS
330
47
102
}
330
47
100
AcDbScale
 70
     0
300
1:100
140
1.0
141
100.0
290
     0
  0
SCALE
  5
54
102
{ACAD_REACTORS
330
47
102
}
330
47
100
AcDbScale
 70
     0
300
2:1
140
2.0
141
1.0
290
     0
  0
SCALE
  5
55
102
{ACAD_REACTORS
330
47
102
}
330
47
100
AcDbScale
 70
     0
300
4:1
140
4.0
141
1.0
290
     0
  0
SCALE
  5
56
102
{ACAD_REACTORS
330
47
102
}
330
47
100
AcDbScale
 70
     0
300
8:1
140
8.0
141
1.0
290
     0
  0
SCALE
  5
57
102
{ACAD_REACTORS
330
47
102
}
330
47
100
AcDbScale
 70
     0
300
10:1
140
10.0
141
1.0
290
     0
  0
SCALE
  5
58
102
{ACAD_REACTORS
330
47
102
}
330
47
100
AcDbScale
 70
     0
300
100:1
140
100.0
141
1.0
290
     0
  0
SCALE
  5
59
102
{ACAD_REACTORS
330
47
102
}
330
47
100
AcDbScale
 70
     0
300
1/128" = 1'-0"
140
0.0078125
141
12.0
290
     0
  0
SCALE
  5
5A
102
{ACAD_REACTORS
330
47
102
}
330
47
100
AcDbScale
 70
     0
300
1/64" = 1'-0"
140
0.015625
141
12.0
290
     0
  0
SCALE
  5
5B
102
{ACAD_REACTORS
330
47
102
}
330
47
100
AcDbScale
 70
     0
300
1/32" = 1'-0"
140
0.03125
141
12.0
290
     0
  0
SCALE
  5
5C
102
{ACAD_REACTORS
330
47
102
}
330
47
100
AcDbScale
 70
     0
300
1/16" = 1'-0"
140
0.0625
141
12.0
290
     0
  0
SCALE
  5
5D
102
{ACAD_REACTORS
330
47
102
}
330
47
100
AcDbScale
 70
     0
300
3/32" = 1'-0"
140
0.09375
141
12.0
290
     0
  0
SCALE
  5
5E
102
{ACAD_REACTORS
330
47
102
}
330
47
100
AcDbScale
 70
     0
300
1/8" = 1'-0"
140
0.125
141
12.0
290
     0
  0
SCALE
  5
5F
102
{ACAD_REACTORS
330
47
102
}
330
47
100
AcDbScale
 70
     0
300
3/16" = 1'-0"
140
0.1875
141
12.0
290
     0
  0
SCALE
  5
60
102
{ACAD_REACTORS
330
47
102
}
330
47
100
AcDbScale
 70
     0
300
1/4" = 1'-0"
140
0.25
141
12.0
290
     0
  0
SCALE
  5
61
102
{ACAD_REACTORS
330
47
102
}
330
47
100
AcDbScale
 70
     0
300
3/8" = 1'-0"
140
0.375
141
12.0
290
     0
  0
SCALE
  5
62
102
{ACAD_REACTORS
330
47
102
}
330
47
100
AcDbScale
 70
     0
300
1/2" = 1'-0"
140
0.5
141
12.0
290
     0
  0
SCALE
  5
63
102
{ACAD_REACTORS
330
47
102
}
330
47
100
AcDbScale
 70
     0
300
3/4" = 1'-0"
140
0.75
141
12.0
290
     0
  0
SCALE
  5
64
102
{ACAD_REACTORS
330
47
102
}
330
47
100
AcDbScale
 70
     0
300
1" = 1'-0"
140
1.0
141
12.0
290
     0
  0
SCALE
  5
65
102
{ACAD_REACTORS
330
47
102
}
330
47
100
AcDbScale
 70
     0
300
1-1/2" = 1'-0"
140
1.5
141
12.0
290
     0
  0
SCALE
  5
66
102
{ACAD_REACTORS
330
47
102
}
330
47
100
AcDbScale
 70
     0
300
3" = 1'-0"
140
3.0
141
12.0
290
     0
  0
SCALE
  5
67
102
{ACAD_REACTORS
330
47
102
}
330
47
100
AcDbScale
 70
     0
300
6" = 1'-0"
140
6.0
141
12.0
290
     0
  0
SCALE
  5
68
102
{ACAD_REACTORS
330
47
102
}
330
47
100
AcDbScale
 70
     0
300
1'-0" = 1'-0"
140
12.0
141
12.0
290
     0
  0
ENDSEC
  0
EOF
